<svg width="124" height="126" viewBox="0 0 124 126" fill="none" xmlns="http://www.w3.org/2000/svg">
<g filter="url(#filter0_d_18_195)">
<path d="M111.163 29.3118H10.3096V67.9738C10.3096 94.297 31.6508 115.638 57.9739 115.638H63.4989C72.4225 115.638 80.7741 113.184 87.9113 108.92L87.932 108.994C98.3685 102.968 109.025 92.0049 112.403 78.4973C115.847 64.716 112.958 54.8433 111.159 51.341L111.163 29.3118Z" fill="url(#paint0_linear_18_195)"/>
</g>
<path d="M111.163 29.3118H10.3096V67.9738C10.3096 94.297 31.6508 115.638 57.9739 115.638H63.4989C72.4225 115.638 80.7741 113.184 87.9113 108.92L87.932 108.994C98.3685 102.968 109.025 92.0049 112.403 78.4973C115.847 64.716 112.958 54.8433 111.159 51.341L111.163 29.3118Z" fill="url(#paint1_radial_18_195)"/>
<path d="M111.163 29.3118H10.3096V67.9738C10.3096 94.297 31.6508 115.638 57.9739 115.638H63.4989C72.4225 115.638 80.7741 113.184 87.9113 108.92L87.932 108.994C98.3685 102.968 109.025 92.0049 112.403 78.4973C115.847 64.716 112.958 54.8433 111.159 51.341L111.163 29.3118Z" fill="url(#paint2_radial_18_195)"/>
<g filter="url(#filter1_f_18_195)">
<path d="M78.1628 43.5034H51.2884C44.1991 43.5034 38.4521 49.2504 38.4521 56.3396V56.3438C38.4521 63.433 44.1991 69.18 51.2884 69.18H78.1628C85.252 69.18 90.999 63.433 90.999 56.3438V56.3396C90.999 49.2504 85.252 43.5034 78.1628 43.5034Z" fill="url(#paint3_linear_18_195)"/>
</g>
<g filter="url(#filter2_f_18_195)">
<path d="M58.1156 49.2227C56.0266 52.8203 52.2218 55.3237 47.8781 55.3237C44.0235 55.3237 40.6 54.0223 38.4157 51.2329C36.8212 53.0728 34.7026 54.3816 32.3436 54.984C29.9847 55.5863 27.4979 55.4534 25.2166 54.6031C22.9352 53.7527 20.9682 52.2256 19.5789 50.2262C18.1897 48.2268 17.4445 45.8506 17.4434 43.4159V32.2086C17.4437 29.991 18.0615 27.8172 19.2274 25.9308C20.3932 24.0443 22.0612 22.5197 24.0446 21.5276C26.0279 20.5355 28.2483 20.1151 30.4571 20.3135C32.6658 20.5118 34.7758 21.3212 36.5506 22.6509C38.138 17.4948 42.6102 15.1489 47.8781 15.1489C51.7576 15.1489 55.206 17.0016 57.3861 19.8656C58.4637 14.5935 63.2219 11.0166 68.9292 11.0166C71.3567 11.0171 73.7246 11.7682 75.7087 13.1668C77.6928 14.5654 79.1959 16.5433 80.0122 18.8294C81.0505 16.26 82.9495 14.1314 85.3842 12.8079C87.819 11.4844 90.6381 11.0483 93.3589 11.5743C96.0798 12.1002 98.5332 13.5555 100.299 15.6911C102.065 17.8266 103.034 20.5096 103.04 23.2809V41.2482C103.04 43.9235 102.141 46.521 100.489 48.6248C98.8359 50.7285 96.525 52.2165 93.926 52.8505C91.327 53.4845 88.5904 53.2277 86.1547 52.1213C83.7191 51.0148 81.7253 49.1228 80.493 46.7483C80.0261 49.2259 78.776 51.488 76.9269 53.2018C75.0777 54.9155 72.7272 55.9903 70.2214 56.2678C67.7156 56.5454 65.1868 56.0111 63.0075 54.7435C60.8281 53.476 59.1133 51.538 58.1156 49.2227Z" fill="#9C5A53"/>
</g>
<path d="M38.4523 25.3904C38.4523 17.6191 32.1523 11.3191 24.3809 11.3191C16.6095 11.3191 10.3096 17.6191 10.3096 25.3904V38.5955C10.3096 46.3669 16.6095 52.6669 24.3809 52.6669C32.1523 52.6669 38.4523 46.3669 38.4523 38.5955V25.3904Z" fill="url(#paint4_radial_18_195)"/>
<path d="M38.4523 25.3904C38.4523 17.6191 32.1523 11.3191 24.3809 11.3191C16.6095 11.3191 10.3096 17.6191 10.3096 25.3904V38.5955C10.3096 46.3669 16.6095 52.6669 24.3809 52.6669C32.1523 52.6669 38.4523 46.3669 38.4523 38.5955V25.3904Z" fill="url(#paint5_radial_18_195)"/>
<path d="M38.4523 25.3904C38.4523 17.6191 32.1523 11.3191 24.3809 11.3191C16.6095 11.3191 10.3096 17.6191 10.3096 25.3904V38.5955C10.3096 46.3669 16.6095 52.6669 24.3809 52.6669C32.1523 52.6669 38.4523 46.3669 38.4523 38.5955V25.3904Z" fill="url(#paint6_radial_18_195)"/>
<path d="M38.4523 25.3904C38.4523 17.6191 32.1523 11.3191 24.3809 11.3191C16.6095 11.3191 10.3096 17.6191 10.3096 25.3904V38.5955C10.3096 46.3669 16.6095 52.6669 24.3809 52.6669C32.1523 52.6669 38.4523 46.3669 38.4523 38.5955V25.3904Z" fill="url(#paint7_radial_18_195)"/>
<path d="M32.0981 19.4102C32.0981 9.6701 38.3981 5.33472 46.1695 5.33472C48.0177 5.33472 49.8478 5.69882 51.5553 6.40623C53.2628 7.11364 54.8142 8.1505 56.1209 9.45759C57.4276 10.7647 58.464 12.3164 59.1709 14.0241C59.8778 15.7318 60.2414 17.562 60.2409 19.4102V38.0988C60.2409 45.8702 53.9409 52.6717 46.1695 52.6717C38.3981 52.6717 32.0981 48.1705 32.0981 38.0946V19.4102Z" fill="url(#paint8_radial_18_195)"/>
<path d="M32.0981 19.4102C32.0981 9.6701 38.3981 5.33472 46.1695 5.33472C48.0177 5.33472 49.8478 5.69882 51.5553 6.40623C53.2628 7.11364 54.8142 8.1505 56.1209 9.45759C57.4276 10.7647 58.464 12.3164 59.1709 14.0241C59.8778 15.7318 60.2414 17.562 60.2409 19.4102V38.0988C60.2409 45.8702 53.9409 52.6717 46.1695 52.6717C38.3981 52.6717 32.0981 48.1705 32.0981 38.0946V19.4102Z" fill="url(#paint9_radial_18_195)"/>
<path d="M32.0981 19.4102C32.0981 9.6701 38.3981 5.33472 46.1695 5.33472C48.0177 5.33472 49.8478 5.69882 51.5553 6.40623C53.2628 7.11364 54.8142 8.1505 56.1209 9.45759C57.4276 10.7647 58.464 12.3164 59.1709 14.0241C59.8778 15.7318 60.2414 17.562 60.2409 19.4102V38.0988C60.2409 45.8702 53.9409 52.6717 46.1695 52.6717C38.3981 52.6717 32.0981 48.1705 32.0981 38.0946V19.4102Z" fill="url(#paint10_radial_18_195)"/>
<path d="M32.0981 19.4102C32.0981 9.6701 38.3981 5.33472 46.1695 5.33472C48.0177 5.33472 49.8478 5.69882 51.5553 6.40623C53.2628 7.11364 54.8142 8.1505 56.1209 9.45759C57.4276 10.7647 58.464 12.3164 59.1709 14.0241C59.8778 15.7318 60.2414 17.562 60.2409 19.4102V38.0988C60.2409 45.8702 53.9409 52.6717 46.1695 52.6717C38.3981 52.6717 32.0981 48.1705 32.0981 38.0946V19.4102Z" fill="url(#paint11_radial_18_195)"/>
<path d="M32.0981 19.4102C32.0981 9.6701 38.3981 5.33472 46.1695 5.33472C48.0177 5.33472 49.8478 5.69882 51.5553 6.40623C53.2628 7.11364 54.8142 8.1505 56.1209 9.45759C57.4276 10.7647 58.464 12.3164 59.1709 14.0241C59.8778 15.7318 60.2414 17.562 60.2409 19.4102V38.0988C60.2409 45.8702 53.9409 52.6717 46.1695 52.6717C38.3981 52.6717 32.0981 48.1705 32.0981 38.0946V19.4102Z" fill="url(#paint12_radial_18_195)"/>
<path d="M111.163 14.8677C111.163 7.09635 104.863 0.796387 97.0914 0.796387C89.32 0.796387 83.02 7.09635 83.02 14.8677V36.039C83.02 43.8104 89.32 50.1104 97.0914 50.1104C104.863 50.1104 111.163 43.8104 111.163 36.039V14.8677Z" fill="#7DDE5B" fill-opacity="0.55"/>
<path d="M111.163 14.8677C111.163 7.09635 104.863 0.796387 97.0914 0.796387C89.32 0.796387 83.02 7.09635 83.02 14.8677V36.039C83.02 43.8104 89.32 50.1104 97.0914 50.1104C104.863 50.1104 111.163 43.8104 111.163 36.039V14.8677Z" fill="url(#paint13_radial_18_195)"/>
<path d="M111.163 14.8677C111.163 7.09635 104.863 0.796387 97.0914 0.796387C89.32 0.796387 83.02 7.09635 83.02 14.8677V36.039C83.02 43.8104 89.32 50.1104 97.0914 50.1104C104.863 50.1104 111.163 43.8104 111.163 36.039V14.8677Z" fill="url(#paint14_radial_18_195)"/>
<path d="M111.163 14.8677C111.163 7.09635 104.863 0.796387 97.0914 0.796387C89.32 0.796387 83.02 7.09635 83.02 14.8677V36.039C83.02 43.8104 89.32 50.1104 97.0914 50.1104C104.863 50.1104 111.163 43.8104 111.163 36.039V14.8677Z" fill="url(#paint15_radial_18_195)"/>
<path d="M111.163 14.8677C111.163 7.09635 104.863 0.796387 97.0914 0.796387C89.32 0.796387 83.02 7.09635 83.02 14.8677V36.039C83.02 43.8104 89.32 50.1104 97.0914 50.1104C104.863 50.1104 111.163 43.8104 111.163 36.039V14.8677Z" fill="url(#paint16_radial_18_195)"/>
<path d="M57.104 13.5453C57.104 5.88999 63.3128 0.423096 70.9723 0.423096C72.7933 0.423096 74.5964 0.781839 76.2788 1.47883C77.9611 2.17583 79.4897 3.19743 80.7771 4.48527C82.0646 5.77311 83.0857 7.30197 83.7822 8.98452C84.4787 10.6671 84.8369 12.4703 84.8364 14.2914V39.9555C84.8364 43.6325 83.3757 47.1589 80.7757 49.7589C78.1756 52.359 74.6493 53.8196 70.9723 53.8196C67.2953 53.8196 63.7689 52.359 61.1689 49.7589C58.5688 47.1589 57.1082 43.6325 57.1082 39.9555V13.5453H57.104Z" fill="url(#paint17_radial_18_195)"/>
<path d="M57.104 13.5453C57.104 5.88999 63.3128 0.423096 70.9723 0.423096C72.7933 0.423096 74.5964 0.781839 76.2788 1.47883C77.9611 2.17583 79.4897 3.19743 80.7771 4.48527C82.0646 5.77311 83.0857 7.30197 83.7822 8.98452C84.4787 10.6671 84.8369 12.4703 84.8364 14.2914V39.9555C84.8364 43.6325 83.3757 47.1589 80.7757 49.7589C78.1756 52.359 74.6493 53.8196 70.9723 53.8196C67.2953 53.8196 63.7689 52.359 61.1689 49.7589C58.5688 47.1589 57.1082 43.6325 57.1082 39.9555V13.5453H57.104Z" fill="url(#paint18_radial_18_195)"/>
<path d="M57.104 13.5453C57.104 5.88999 63.3128 0.423096 70.9723 0.423096C72.7933 0.423096 74.5964 0.781839 76.2788 1.47883C77.9611 2.17583 79.4897 3.19743 80.7771 4.48527C82.0646 5.77311 83.0857 7.30197 83.7822 8.98452C84.4787 10.6671 84.8369 12.4703 84.8364 14.2914V39.9555C84.8364 43.6325 83.3757 47.1589 80.7757 49.7589C78.1756 52.359 74.6493 53.8196 70.9723 53.8196C67.2953 53.8196 63.7689 52.359 61.1689 49.7589C58.5688 47.1589 57.1082 43.6325 57.1082 39.9555V13.5453H57.104Z" fill="url(#paint19_radial_18_195)"/>
<path d="M57.104 13.5453C57.104 5.88999 63.3128 0.423096 70.9723 0.423096C72.7933 0.423096 74.5964 0.781839 76.2788 1.47883C77.9611 2.17583 79.4897 3.19743 80.7771 4.48527C82.0646 5.77311 83.0857 7.30197 83.7822 8.98452C84.4787 10.6671 84.8369 12.4703 84.8364 14.2914V39.9555C84.8364 43.6325 83.3757 47.1589 80.7757 49.7589C78.1756 52.359 74.6493 53.8196 70.9723 53.8196C67.2953 53.8196 63.7689 52.359 61.1689 49.7589C58.5688 47.1589 57.1082 43.6325 57.1082 39.9555V13.5453H57.104Z" fill="url(#paint20_radial_18_195)"/>
<path d="M57.104 13.5453C57.104 5.88999 63.3128 0.423096 70.9723 0.423096C72.7933 0.423096 74.5964 0.781839 76.2788 1.47883C77.9611 2.17583 79.4897 3.19743 80.7771 4.48527C82.0646 5.77311 83.0857 7.30197 83.7822 8.98452C84.4787 10.6671 84.8369 12.4703 84.8364 14.2914V39.9555C84.8364 43.6325 83.3757 47.1589 80.7757 49.7589C78.1756 52.359 74.6493 53.8196 70.9723 53.8196C67.2953 53.8196 63.7689 52.359 61.1689 49.7589C58.5688 47.1589 57.1082 43.6325 57.1082 39.9555V13.5453H57.104Z" fill="url(#paint21_radial_18_195)"/>
<path d="M71.8551 30.6301C63.7107 30.6301 57.104 36.8762 57.104 44.5771C57.104 52.2822 63.7107 58.5241 71.8592 58.5241H82.6397C87.4807 58.5241 91.4058 62.2378 91.4058 66.8136V79.2395H92.2347C106.592 79.2395 114.011 66.7224 114.011 55.3451C114.011 41.6966 102.311 30.6301 87.8745 30.6301H71.8551Z" fill="url(#paint22_radial_18_195)"/>
<path d="M71.8551 30.6301C63.7107 30.6301 57.104 36.8762 57.104 44.5771C57.104 52.2822 63.7107 58.5241 71.8592 58.5241H82.6397C87.4807 58.5241 91.4058 62.2378 91.4058 66.8136V79.2395H92.2347C106.592 79.2395 114.011 66.7224 114.011 55.3451C114.011 41.6966 102.311 30.6301 87.8745 30.6301H71.8551Z" fill="url(#paint23_radial_18_195)"/>
<path d="M71.8551 30.6301C63.7107 30.6301 57.104 36.8762 57.104 44.5771C57.104 52.2822 63.7107 58.5241 71.8592 58.5241H82.6397C87.4807 58.5241 91.4058 62.2378 91.4058 66.8136V79.2395H92.2347C106.592 79.2395 114.011 66.7224 114.011 55.3451C114.011 41.6966 102.311 30.6301 87.8745 30.6301H71.8551Z" fill="url(#paint24_radial_18_195)"/>
<path d="M71.8551 30.6301C63.7107 30.6301 57.104 36.8762 57.104 44.5771C57.104 52.2822 63.7107 58.5241 71.8592 58.5241H82.6397C87.4807 58.5241 91.4058 62.2378 91.4058 66.8136V79.2395H92.2347C106.592 79.2395 114.011 66.7224 114.011 55.3451C114.011 41.6966 102.311 30.6301 87.8745 30.6301H71.8551Z" fill="url(#paint25_radial_18_195)"/>
<path d="M71.8551 30.6301C63.7107 30.6301 57.104 36.8762 57.104 44.5771C57.104 52.2822 63.7107 58.5241 71.8592 58.5241H82.6397C87.4807 58.5241 91.4058 62.2378 91.4058 66.8136V79.2395H92.2347C106.592 79.2395 114.011 66.7224 114.011 55.3451C114.011 41.6966 102.311 30.6301 87.8745 30.6301H71.8551Z" fill="url(#paint26_radial_18_195)"/>
<path d="M71.8551 30.6301C63.7107 30.6301 57.104 36.8762 57.104 44.5771C57.104 52.2822 63.7107 58.5241 71.8592 58.5241H82.6397C87.4807 58.5241 91.4058 62.2378 91.4058 66.8136V79.2395H92.2347C106.592 79.2395 114.011 66.7224 114.011 55.3451C114.011 41.6966 102.311 30.6301 87.8745 30.6301H71.8551Z" fill="url(#paint27_radial_18_195)"/>
<g filter="url(#filter3_f_18_195)">
<path d="M79.4263 41.9121H88.296C101.505 41.365 107.801 46.0982 109.931 54.9348" stroke="url(#paint28_linear_18_195)" stroke-width="4.71155" stroke-linecap="round"/>
</g>
<defs>
<filter id="filter0_d_18_195" x="0.886464" y="19.8887" width="122.548" height="105.173" filterUnits="userSpaceOnUse" color-interpolation-filters="sRGB">
<feFlood flood-opacity="0" result="BackgroundImageFix"/>
<feColorMatrix in="SourceAlpha" type="matrix" values="0 0 0 0 0 0 0 0 0 0 0 0 0 0 0 0 0 0 127 0" result="hardAlpha"/>
<feOffset/>
<feGaussianBlur stdDeviation="4.71155"/>
<feComposite in2="hardAlpha" operator="out"/>
<feColorMatrix type="matrix" values="0 0 0 0 0.862745 0 0 0 0 0.643137 0 0 0 0 0.572549 0 0 0 1 0"/>
<feBlend mode="normal" in2="BackgroundImageFix" result="effect1_dropShadow_18_195"/>
<feBlend mode="normal" in="SourceGraphic" in2="effect1_dropShadow_18_195" result="shape"/>
</filter>
<filter id="filter1_f_18_195" x="31.3848" y="36.4361" width="66.6815" height="39.8112" filterUnits="userSpaceOnUse" color-interpolation-filters="sRGB">
<feFlood flood-opacity="0" result="BackgroundImageFix"/>
<feBlend mode="normal" in="SourceGraphic" in2="BackgroundImageFix" result="shape"/>
<feGaussianBlur stdDeviation="3.53366" result="effect1_foregroundBlur_18_195"/>
</filter>
<filter id="filter2_f_18_195" x="12.7318" y="6.30505" width="95.0203" height="54.7459" filterUnits="userSpaceOnUse" color-interpolation-filters="sRGB">
<feFlood flood-opacity="0" result="BackgroundImageFix"/>
<feBlend mode="normal" in="SourceGraphic" in2="BackgroundImageFix" result="shape"/>
<feGaussianBlur stdDeviation="2.35578" result="effect1_foregroundBlur_18_195"/>
</filter>
<filter id="filter3_f_18_195" x="73.0655" y="35.5089" width="43.2269" height="25.787" filterUnits="userSpaceOnUse" color-interpolation-filters="sRGB">
<feFlood flood-opacity="0" result="BackgroundImageFix"/>
<feBlend mode="normal" in="SourceGraphic" in2="BackgroundImageFix" result="shape"/>
<feGaussianBlur stdDeviation="2.00241" result="effect1_foregroundBlur_18_195"/>
</filter>
<linearGradient id="paint0_linear_18_195" x1="60.2577" y1="75.4219" x2="117.513" y2="75.4219" gradientUnits="userSpaceOnUse">
<stop stop-color="#DDA89A"/>
<stop offset="1" stop-color="#F5C1B2"/>
</linearGradient>
<radialGradient id="paint1_radial_18_195" cx="0" cy="0" r="1" gradientUnits="userSpaceOnUse" gradientTransform="translate(62.1601 64.9398) rotate(90) scale(54.0468 85.4962)">
<stop offset="0.657" stop-color="#B67995" stop-opacity="0"/>
<stop offset="1" stop-color="#B67995"/>
</radialGradient>
<radialGradient id="paint2_radial_18_195" cx="0" cy="0" r="1" gradientUnits="userSpaceOnUse" gradientTransform="translate(64.293 62.8432) rotate(164.074) scale(57.7792 79.5543)">
<stop offset="0.834" stop-color="#ECB09B" stop-opacity="0"/>
<stop offset="1" stop-color="#ECB09B"/>
</radialGradient>
<linearGradient id="paint3_linear_18_195" x1="80.3678" y1="61.4833" x2="31.3688" y2="77.8756" gradientUnits="userSpaceOnUse">
<stop stop-color="#AF7068"/>
<stop offset="1" stop-color="#AF7068" stop-opacity="0"/>
</linearGradient>
<radialGradient id="paint4_radial_18_195" cx="0" cy="0" r="1" gradientUnits="userSpaceOnUse" gradientTransform="translate(29.968 33.2862) rotate(180) scale(15.8833 36.2101)">
<stop stop-color="#F8C7B2"/>
<stop offset="0.582" stop-color="#E8B69E"/>
<stop offset="1" stop-color="#E2AD92"/>
</radialGradient>
<radialGradient id="paint5_radial_18_195" cx="0" cy="0" r="1" gradientUnits="userSpaceOnUse" gradientTransform="translate(35.895 31.993) rotate(180) scale(6.96124 41.5248)">
<stop offset="0.413" stop-color="#D1A083"/>
<stop offset="1" stop-color="#D1A083" stop-opacity="0"/>
</radialGradient>
<radialGradient id="paint6_radial_18_195" cx="0" cy="0" r="1" gradientUnits="userSpaceOnUse" gradientTransform="translate(13.2648 12.948) rotate(53.0969) scale(8.47681 16.5487)">
<stop stop-color="#D7AB93"/>
<stop offset="1" stop-color="#D7AB93" stop-opacity="0"/>
</radialGradient>
<radialGradient id="paint7_radial_18_195" cx="0" cy="0" r="1" gradientUnits="userSpaceOnUse" gradientTransform="translate(24.3809 19.3018) rotate(90) scale(33.3628 28.9478)">
<stop offset="0.667" stop-color="#C38586" stop-opacity="0"/>
<stop offset="1" stop-color="#C38586"/>
</radialGradient>
<radialGradient id="paint8_radial_18_195" cx="0" cy="0" r="1" gradientUnits="userSpaceOnUse" gradientTransform="translate(51.7566 30.4849) rotate(180) scale(15.8833 41.4502)">
<stop stop-color="#FFD6BA"/>
<stop offset="0.582" stop-color="#EFBDA3"/>
<stop offset="1" stop-color="#D69F88"/>
</radialGradient>
<radialGradient id="paint9_radial_18_195" cx="0" cy="0" r="1" gradientUnits="userSpaceOnUse" gradientTransform="translate(59.0057 29.0011) rotate(180) scale(5.47398 37.3784)">
<stop offset="0.132" stop-color="#D39A76"/>
<stop offset="1" stop-color="#D39A76" stop-opacity="0"/>
</radialGradient>
<radialGradient id="paint10_radial_18_195" cx="0" cy="0" r="1" gradientUnits="userSpaceOnUse" gradientTransform="translate(35.0515 7.20019) rotate(56.736) scale(9.27992 17.304)">
<stop stop-color="#D7AB93"/>
<stop offset="1" stop-color="#D7AB93" stop-opacity="0"/>
</radialGradient>
<radialGradient id="paint11_radial_18_195" cx="0" cy="0" r="1" gradientUnits="userSpaceOnUse" gradientTransform="translate(46.1695 14.478) rotate(90) scale(38.1907 28.9478)">
<stop offset="0.667" stop-color="#C38586" stop-opacity="0"/>
<stop offset="1" stop-color="#C38586"/>
</radialGradient>
<radialGradient id="paint12_radial_18_195" cx="0" cy="0" r="1" gradientUnits="userSpaceOnUse" gradientTransform="translate(34.5104 3.23748) rotate(46.9306) scale(11.6075 14.2073)">
<stop stop-color="#D2A68B"/>
<stop offset="1" stop-color="#D2A68B" stop-opacity="0"/>
</radialGradient>
<radialGradient id="paint13_radial_18_195" cx="0" cy="0" r="1" gradientUnits="userSpaceOnUse" gradientTransform="translate(104.067 23.7126) rotate(180) scale(18.8212 51.1725)">
<stop stop-color="#FFE8CA"/>
<stop offset="0.582" stop-color="#F7BB9D"/>
<stop offset="1" stop-color="#F0A47D"/>
</radialGradient>
<radialGradient id="paint14_radial_18_195" cx="0" cy="0" r="1" gradientUnits="userSpaceOnUse" gradientTransform="translate(114.905 26.3735) rotate(180) scale(7.85745 55.8991)">
<stop offset="0.132" stop-color="#E8AC88"/>
<stop offset="1" stop-color="#E8AC88" stop-opacity="0"/>
</radialGradient>
<radialGradient id="paint15_radial_18_195" cx="0" cy="0" r="1" gradientUnits="userSpaceOnUse" gradientTransform="translate(85.9715 2.73774) rotate(57.804) scale(9.5531 17.5126)">
<stop stop-color="#D7AB93"/>
<stop offset="1" stop-color="#D7AB93" stop-opacity="0"/>
</radialGradient>
<radialGradient id="paint16_radial_18_195" cx="0" cy="0" r="1" gradientUnits="userSpaceOnUse" gradientTransform="translate(85.4323 -1.38789) rotate(48.1005) scale(11.8692 14.4755)">
<stop stop-color="#D2A68B"/>
<stop offset="1" stop-color="#D2A68B" stop-opacity="0"/>
</radialGradient>
<radialGradient id="paint17_radial_18_195" cx="0" cy="0" r="1" gradientUnits="userSpaceOnUse" gradientTransform="translate(76.4765 28.7938) rotate(180) scale(15.6504 46.7625)">
<stop stop-color="#FFE5C7"/>
<stop offset="0.582" stop-color="#F6C2A7"/>
<stop offset="1" stop-color="#DCA486"/>
</radialGradient>
<radialGradient id="paint18_radial_18_195" cx="0" cy="0" r="1" gradientUnits="userSpaceOnUse" gradientTransform="translate(88.5252 28.1223) rotate(180) scale(7.74223 60.53)">
<stop offset="0.132" stop-color="#E8AC88"/>
<stop offset="1" stop-color="#E8AC88" stop-opacity="0"/>
</radialGradient>
<radialGradient id="paint19_radial_18_195" cx="0" cy="0" r="1" gradientUnits="userSpaceOnUse" gradientTransform="translate(60.0159 2.52839) rotate(60.19) scale(10.0888 17.6932)">
<stop stop-color="#D7AB93"/>
<stop offset="1" stop-color="#D7AB93" stop-opacity="0"/>
</radialGradient>
<radialGradient id="paint20_radial_18_195" cx="0" cy="0" r="1" gradientUnits="userSpaceOnUse" gradientTransform="translate(70.9723 10.7352) rotate(90) scale(43.0853 28.5234)">
<stop offset="0.667" stop-color="#C38586" stop-opacity="0"/>
<stop offset="1" stop-color="#C38586"/>
</radialGradient>
<radialGradient id="paint21_radial_18_195" cx="0" cy="0" r="1" gradientUnits="userSpaceOnUse" gradientTransform="translate(59.484 -1.9415) rotate(50.77) scale(12.3498 14.8439)">
<stop stop-color="#D2A68B"/>
<stop offset="1" stop-color="#D2A68B" stop-opacity="0"/>
</radialGradient>
<radialGradient id="paint22_radial_18_195" cx="0" cy="0" r="1" gradientUnits="userSpaceOnUse" gradientTransform="translate(94.361 35.5624) rotate(103.459) scale(23.2422 50.4409)">
<stop stop-color="#FFDABA"/>
<stop offset="1" stop-color="#EDB8A9"/>
</radialGradient>
<radialGradient id="paint23_radial_18_195" cx="0" cy="0" r="1" gradientUnits="userSpaceOnUse" gradientTransform="translate(78.0639 62.7559) rotate(90) scale(11.4883 26.5942)">
<stop offset="0.445" stop-color="#BD8088"/>
<stop offset="1" stop-color="#BD8088" stop-opacity="0"/>
</radialGradient>
<radialGradient id="paint24_radial_18_195" cx="0" cy="0" r="1" gradientUnits="userSpaceOnUse" gradientTransform="translate(92.5414 79.2395) rotate(-53.049) scale(18.5061 29.616)">
<stop offset="0.386" stop-color="#EBB7A8"/>
<stop offset="1" stop-color="#EBB7A8" stop-opacity="0"/>
</radialGradient>
<radialGradient id="paint25_radial_18_195" cx="0" cy="0" r="1" gradientUnits="userSpaceOnUse" gradientTransform="translate(54.8659 45.0123) scale(15.5293 22.4856)">
<stop stop-color="#DCA892"/>
<stop offset="1" stop-color="#DCA892" stop-opacity="0"/>
</radialGradient>
<radialGradient id="paint26_radial_18_195" cx="0" cy="0" r="1" gradientUnits="userSpaceOnUse" gradientTransform="translate(62.8693 59.3241) rotate(-40.1559) scale(16.1778 16.7598)">
<stop stop-color="#C78C90"/>
<stop offset="1" stop-color="#C78C90" stop-opacity="0"/>
</radialGradient>
<radialGradient id="paint27_radial_18_195" cx="0" cy="0" r="1" gradientUnits="userSpaceOnUse" gradientTransform="translate(59.2883 54.9348) rotate(-40.8069) scale(6.24324 10.4496)">
<stop stop-color="#D89D90"/>
<stop offset="1" stop-color="#D89D90" stop-opacity="0"/>
</radialGradient>
<linearGradient id="paint28_linear_18_195" x1="79.4263" y1="42.5421" x2="126.27" y2="57.8361" gradientUnits="userSpaceOnUse">
<stop stop-color="#FFDDC2"/>
<stop offset="1" stop-color="#FFDDC2" stop-opacity="0"/>
</linearGradient>
</defs>
</svg>
