<svg width="133" height="140" viewBox="0 0 133 140" fill="none" xmlns="http://www.w3.org/2000/svg">
<g filter="url(#filter0_d_18_26)">
<path d="M57.1711 17.0272C57.5663 14.1888 59.0728 11.6236 61.3593 9.89598C62.4914 9.04053 63.781 8.41645 65.1543 8.05938C66.5276 7.7023 67.9578 7.61922 69.3633 7.81488C70.7687 8.01054 72.1219 8.4811 73.3455 9.1997C74.569 9.9183 75.6391 10.8709 76.4945 12.003C77.35 13.1352 77.9741 14.4247 78.3311 15.7981C78.6882 17.1714 78.7713 18.6016 78.5756 20.007L74.4594 49.5904C77.5466 40.7583 80.6964 32.3379 83.3183 26.5036C85.4346 21.0003 90.656 17.4836 97.1614 19.3717C103.032 21.2956 105.819 27.9353 103.56 33.6578C99.5775 43.7158 94.0474 58.8609 90.6067 72.1179C95.8863 69.8987 101.443 65.2813 106.633 61.353C113.447 56.6999 120.029 58.1987 123.59 63.5051C125.161 65.8418 125.795 68.6839 125.367 71.4667C124.938 74.2494 123.478 76.7691 121.277 78.5249L110.468 87.1512C106.735 90.6794 103.213 94.4248 99.922 98.368C97.3236 101.45 94.935 104.702 92.7722 108.104C91.2152 110.471 89.609 112.918 86.9871 116.265C84.0773 119.992 80.5967 123.235 76.6741 125.875L76.6383 125.844C70.3289 130.261 62.8106 132.625 55.1085 132.613C48.3379 132.616 41.692 130.792 35.8724 127.331C30.0528 123.871 25.2753 118.904 22.0443 112.954C16.2636 102.699 15.3241 92.1041 14.4695 82.4757C14.2797 80.1964 14.0545 77.9203 13.7939 75.648C13.4172 70.0649 12.623 64.5178 11.4181 59.0533L8.0356 45.2638C7.68771 43.8823 7.61646 42.4456 7.82595 41.0364C8.03545 39.6273 8.52154 38.2734 9.25627 37.0528C9.991 35.8323 10.9599 34.769 12.1071 33.9243C13.2543 33.0796 14.5573 32.4701 15.941 32.1309C17.3246 31.7917 18.7617 31.7295 20.1696 31.9478C21.5774 32.1661 22.9282 32.6607 24.1441 33.4031C25.3601 34.1455 26.4172 35.121 27.2547 36.2735C28.0922 37.426 28.6935 38.7327 29.024 40.1185L31.9636 52.1004L30.1112 29.1299C29.9782 27.7056 30.1294 26.2691 30.5559 24.9036C30.9824 23.5382 31.6757 22.271 32.5958 21.1757C33.5158 20.0803 34.6442 19.1785 35.9155 18.5227C37.1868 17.8668 38.5757 17.4699 40.0015 17.3549C41.4274 17.24 42.8619 17.4094 44.2218 17.8532C45.5817 18.297 46.84 19.0064 47.9236 19.9403C49.0072 20.8742 49.8946 22.0139 50.5342 23.2934C51.1739 24.5729 51.5532 25.9667 51.65 27.3939L53.1488 45.9797L57.1756 17.0317L57.1711 17.0272Z" fill="#FCC5B2"/>
<path d="M57.1711 17.0272C57.5663 14.1888 59.0728 11.6236 61.3593 9.89598C62.4914 9.04053 63.781 8.41645 65.1543 8.05938C66.5276 7.7023 67.9578 7.61922 69.3633 7.81488C70.7687 8.01054 72.1219 8.4811 73.3455 9.1997C74.569 9.9183 75.6391 10.8709 76.4945 12.003C77.35 13.1352 77.9741 14.4247 78.3311 15.7981C78.6882 17.1714 78.7713 18.6016 78.5756 20.007L74.4594 49.5904C77.5466 40.7583 80.6964 32.3379 83.3183 26.5036C85.4346 21.0003 90.656 17.4836 97.1614 19.3717C103.032 21.2956 105.819 27.9353 103.56 33.6578C99.5775 43.7158 94.0474 58.8609 90.6067 72.1179C95.8863 69.8987 101.443 65.2813 106.633 61.353C113.447 56.6999 120.029 58.1987 123.59 63.5051C125.161 65.8418 125.795 68.6839 125.367 71.4667C124.938 74.2494 123.478 76.7691 121.277 78.5249L110.468 87.1512C106.735 90.6794 103.213 94.4248 99.922 98.368C97.3236 101.45 94.935 104.702 92.7722 108.104C91.2152 110.471 89.609 112.918 86.9871 116.265C84.0773 119.992 80.5967 123.235 76.6741 125.875L76.6383 125.844C70.3289 130.261 62.8106 132.625 55.1085 132.613C48.3379 132.616 41.692 130.792 35.8724 127.331C30.0528 123.871 25.2753 118.904 22.0443 112.954C16.2636 102.699 15.3241 92.1041 14.4695 82.4757C14.2797 80.1964 14.0545 77.9203 13.7939 75.648C13.4172 70.0649 12.623 64.5178 11.4181 59.0533L8.0356 45.2638C7.68771 43.8823 7.61646 42.4456 7.82595 41.0364C8.03545 39.6273 8.52154 38.2734 9.25627 37.0528C9.991 35.8323 10.9599 34.769 12.1071 33.9243C13.2543 33.0796 14.5573 32.4701 15.941 32.1309C17.3246 31.7917 18.7617 31.7295 20.1696 31.9478C21.5774 32.1661 22.9282 32.6607 24.1441 33.4031C25.3601 34.1455 26.4172 35.121 27.2547 36.2735C28.0922 37.426 28.6935 38.7327 29.024 40.1185L31.9636 52.1004L30.1112 29.1299C29.9782 27.7056 30.1294 26.2691 30.5559 24.9036C30.9824 23.5382 31.6757 22.271 32.5958 21.1757C33.5158 20.0803 34.6442 19.1785 35.9155 18.5227C37.1868 17.8668 38.5757 17.4699 40.0015 17.3549C41.4274 17.24 42.8619 17.4094 44.2218 17.8532C45.5817 18.297 46.84 19.0064 47.9236 19.9403C49.0072 20.8742 49.8946 22.0139 50.5342 23.2934C51.1739 24.5729 51.5532 25.9667 51.65 27.3939L53.1488 45.9797L57.1756 17.0317L57.1711 17.0272Z" fill="url(#paint0_radial_18_26)"/>
<path d="M57.1711 17.0272C57.5663 14.1888 59.0728 11.6236 61.3593 9.89598C62.4914 9.04053 63.781 8.41645 65.1543 8.05938C66.5276 7.7023 67.9578 7.61922 69.3633 7.81488C70.7687 8.01054 72.1219 8.4811 73.3455 9.1997C74.569 9.9183 75.6391 10.8709 76.4945 12.003C77.35 13.1352 77.9741 14.4247 78.3311 15.7981C78.6882 17.1714 78.7713 18.6016 78.5756 20.007L74.4594 49.5904C77.5466 40.7583 80.6964 32.3379 83.3183 26.5036C85.4346 21.0003 90.656 17.4836 97.1614 19.3717C103.032 21.2956 105.819 27.9353 103.56 33.6578C99.5775 43.7158 94.0474 58.8609 90.6067 72.1179C95.8863 69.8987 101.443 65.2813 106.633 61.353C113.447 56.6999 120.029 58.1987 123.59 63.5051C125.161 65.8418 125.795 68.6839 125.367 71.4667C124.938 74.2494 123.478 76.7691 121.277 78.5249L110.468 87.1512C106.735 90.6794 103.213 94.4248 99.922 98.368C97.3236 101.45 94.935 104.702 92.7722 108.104C91.2152 110.471 89.609 112.918 86.9871 116.265C84.0773 119.992 80.5967 123.235 76.6741 125.875L76.6383 125.844C70.3289 130.261 62.8106 132.625 55.1085 132.613C48.3379 132.616 41.692 130.792 35.8724 127.331C30.0528 123.871 25.2753 118.904 22.0443 112.954C16.2636 102.699 15.3241 92.1041 14.4695 82.4757C14.2797 80.1964 14.0545 77.9203 13.7939 75.648C13.4172 70.0649 12.623 64.5178 11.4181 59.0533L8.0356 45.2638C7.68771 43.8823 7.61646 42.4456 7.82595 41.0364C8.03545 39.6273 8.52154 38.2734 9.25627 37.0528C9.991 35.8323 10.9599 34.769 12.1071 33.9243C13.2543 33.0796 14.5573 32.4701 15.941 32.1309C17.3246 31.7917 18.7617 31.7295 20.1696 31.9478C21.5774 32.1661 22.9282 32.6607 24.1441 33.4031C25.3601 34.1455 26.4172 35.121 27.2547 36.2735C28.0922 37.426 28.6935 38.7327 29.024 40.1185L31.9636 52.1004L30.1112 29.1299C29.9782 27.7056 30.1294 26.2691 30.5559 24.9036C30.9824 23.5382 31.6757 22.271 32.5958 21.1757C33.5158 20.0803 34.6442 19.1785 35.9155 18.5227C37.1868 17.8668 38.5757 17.4699 40.0015 17.3549C41.4274 17.24 42.8619 17.4094 44.2218 17.8532C45.5817 18.297 46.84 19.0064 47.9236 19.9403C49.0072 20.8742 49.8946 22.0139 50.5342 23.2934C51.1739 24.5729 51.5532 25.9667 51.65 27.3939L53.1488 45.9797L57.1756 17.0317L57.1711 17.0272Z" fill="url(#paint1_radial_18_26)"/>
<path d="M57.1711 17.0272C57.5663 14.1888 59.0728 11.6236 61.3593 9.89598C62.4914 9.04053 63.781 8.41645 65.1543 8.05938C66.5276 7.7023 67.9578 7.61922 69.3633 7.81488C70.7687 8.01054 72.1219 8.4811 73.3455 9.1997C74.569 9.9183 75.6391 10.8709 76.4945 12.003C77.35 13.1352 77.9741 14.4247 78.3311 15.7981C78.6882 17.1714 78.7713 18.6016 78.5756 20.007L74.4594 49.5904C77.5466 40.7583 80.6964 32.3379 83.3183 26.5036C85.4346 21.0003 90.656 17.4836 97.1614 19.3717C103.032 21.2956 105.819 27.9353 103.56 33.6578C99.5775 43.7158 94.0474 58.8609 90.6067 72.1179C95.8863 69.8987 101.443 65.2813 106.633 61.353C113.447 56.6999 120.029 58.1987 123.59 63.5051C125.161 65.8418 125.795 68.6839 125.367 71.4667C124.938 74.2494 123.478 76.7691 121.277 78.5249L110.468 87.1512C106.735 90.6794 103.213 94.4248 99.922 98.368C97.3236 101.45 94.935 104.702 92.7722 108.104C91.2152 110.471 89.609 112.918 86.9871 116.265C84.0773 119.992 80.5967 123.235 76.6741 125.875L76.6383 125.844C70.3289 130.261 62.8106 132.625 55.1085 132.613C48.3379 132.616 41.692 130.792 35.8724 127.331C30.0528 123.871 25.2753 118.904 22.0443 112.954C16.2636 102.699 15.3241 92.1041 14.4695 82.4757C14.2797 80.1964 14.0545 77.9203 13.7939 75.648C13.4172 70.0649 12.623 64.5178 11.4181 59.0533L8.0356 45.2638C7.68771 43.8823 7.61646 42.4456 7.82595 41.0364C8.03545 39.6273 8.52154 38.2734 9.25627 37.0528C9.991 35.8323 10.9599 34.769 12.1071 33.9243C13.2543 33.0796 14.5573 32.4701 15.941 32.1309C17.3246 31.7917 18.7617 31.7295 20.1696 31.9478C21.5774 32.1661 22.9282 32.6607 24.1441 33.4031C25.3601 34.1455 26.4172 35.121 27.2547 36.2735C28.0922 37.426 28.6935 38.7327 29.024 40.1185L31.9636 52.1004L30.1112 29.1299C29.9782 27.7056 30.1294 26.2691 30.5559 24.9036C30.9824 23.5382 31.6757 22.271 32.5958 21.1757C33.5158 20.0803 34.6442 19.1785 35.9155 18.5227C37.1868 17.8668 38.5757 17.4699 40.0015 17.3549C41.4274 17.24 42.8619 17.4094 44.2218 17.8532C45.5817 18.297 46.84 19.0064 47.9236 19.9403C49.0072 20.8742 49.8946 22.0139 50.5342 23.2934C51.1739 24.5729 51.5532 25.9667 51.65 27.3939L53.1488 45.9797L57.1756 17.0317L57.1711 17.0272Z" fill="url(#paint2_radial_18_26)"/>
<path d="M57.1711 17.0272C57.5663 14.1888 59.0728 11.6236 61.3593 9.89598C62.4914 9.04053 63.781 8.41645 65.1543 8.05938C66.5276 7.7023 67.9578 7.61922 69.3633 7.81488C70.7687 8.01054 72.1219 8.4811 73.3455 9.1997C74.569 9.9183 75.6391 10.8709 76.4945 12.003C77.35 13.1352 77.9741 14.4247 78.3311 15.7981C78.6882 17.1714 78.7713 18.6016 78.5756 20.007L74.4594 49.5904C77.5466 40.7583 80.6964 32.3379 83.3183 26.5036C85.4346 21.0003 90.656 17.4836 97.1614 19.3717C103.032 21.2956 105.819 27.9353 103.56 33.6578C99.5775 43.7158 94.0474 58.8609 90.6067 72.1179C95.8863 69.8987 101.443 65.2813 106.633 61.353C113.447 56.6999 120.029 58.1987 123.59 63.5051C125.161 65.8418 125.795 68.6839 125.367 71.4667C124.938 74.2494 123.478 76.7691 121.277 78.5249L110.468 87.1512C106.735 90.6794 103.213 94.4248 99.922 98.368C97.3236 101.45 94.935 104.702 92.7722 108.104C91.2152 110.471 89.609 112.918 86.9871 116.265C84.0773 119.992 80.5967 123.235 76.6741 125.875L76.6383 125.844C70.3289 130.261 62.8106 132.625 55.1085 132.613C48.3379 132.616 41.692 130.792 35.8724 127.331C30.0528 123.871 25.2753 118.904 22.0443 112.954C16.2636 102.699 15.3241 92.1041 14.4695 82.4757C14.2797 80.1964 14.0545 77.9203 13.7939 75.648C13.4172 70.0649 12.623 64.5178 11.4181 59.0533L8.0356 45.2638C7.68771 43.8823 7.61646 42.4456 7.82595 41.0364C8.03545 39.6273 8.52154 38.2734 9.25627 37.0528C9.991 35.8323 10.9599 34.769 12.1071 33.9243C13.2543 33.0796 14.5573 32.4701 15.941 32.1309C17.3246 31.7917 18.7617 31.7295 20.1696 31.9478C21.5774 32.1661 22.9282 32.6607 24.1441 33.4031C25.3601 34.1455 26.4172 35.121 27.2547 36.2735C28.0922 37.426 28.6935 38.7327 29.024 40.1185L31.9636 52.1004L30.1112 29.1299C29.9782 27.7056 30.1294 26.2691 30.5559 24.9036C30.9824 23.5382 31.6757 22.271 32.5958 21.1757C33.5158 20.0803 34.6442 19.1785 35.9155 18.5227C37.1868 17.8668 38.5757 17.4699 40.0015 17.3549C41.4274 17.24 42.8619 17.4094 44.2218 17.8532C45.5817 18.297 46.84 19.0064 47.9236 19.9403C49.0072 20.8742 49.8946 22.0139 50.5342 23.2934C51.1739 24.5729 51.5532 25.9667 51.65 27.3939L53.1488 45.9797L57.1756 17.0317L57.1711 17.0272Z" fill="url(#paint3_radial_18_26)"/>
<path d="M13.8834 76.4272C13.8544 76.1676 13.8246 75.9081 13.7939 75.6487C13.4171 70.0656 12.623 64.5185 11.4181 59.0539L8.0356 45.2645C7.68771 43.883 7.61646 42.4463 7.82595 41.0371C8.03545 39.6279 8.52154 38.2741 9.25627 37.0535C9.991 35.8329 10.9599 34.7697 12.1071 33.925C13.2543 33.0803 14.5573 32.4708 15.941 32.1315C17.3246 31.7923 18.7617 31.7301 20.1696 31.9484C21.5774 32.1668 22.9282 32.6614 24.1441 33.4037C25.3601 34.1461 26.4172 35.1216 27.2547 36.2741C28.0922 37.4266 28.6935 38.7334 29.024 40.1192L31.9591 52.0921L35.8516 66.9464C37.0418 75.4697 23.8966 82.9327 13.8834 76.4272Z" fill="url(#paint4_linear_18_26)"/>
<path d="M13.8834 76.4272C13.8544 76.1676 13.8246 75.9081 13.7939 75.6487C13.4171 70.0656 12.623 64.5185 11.4181 59.0539L8.0356 45.2645C7.68771 43.883 7.61646 42.4463 7.82595 41.0371C8.03545 39.6279 8.52154 38.2741 9.25627 37.0535C9.991 35.8329 10.9599 34.7697 12.1071 33.925C13.2543 33.0803 14.5573 32.4708 15.941 32.1315C17.3246 31.7923 18.7617 31.7301 20.1696 31.9484C21.5774 32.1668 22.9282 32.6614 24.1441 33.4037C25.3601 34.1461 26.4172 35.1216 27.2547 36.2741C28.0922 37.4266 28.6935 38.7334 29.024 40.1192L31.9591 52.0921L35.8516 66.9464C37.0418 75.4697 23.8966 82.9327 13.8834 76.4272Z" fill="url(#paint5_radial_18_26)"/>
<path d="M13.8834 76.4272C13.8544 76.1676 13.8246 75.9081 13.7939 75.6487C13.4171 70.0656 12.623 64.5185 11.4181 59.0539L8.0356 45.2645C7.68771 43.883 7.61646 42.4463 7.82595 41.0371C8.03545 39.6279 8.52154 38.2741 9.25627 37.0535C9.991 35.8329 10.9599 34.7697 12.1071 33.925C13.2543 33.0803 14.5573 32.4708 15.941 32.1315C17.3246 31.7923 18.7617 31.7301 20.1696 31.9484C21.5774 32.1668 22.9282 32.6614 24.1441 33.4037C25.3601 34.1461 26.4172 35.1216 27.2547 36.2741C28.0922 37.4266 28.6935 38.7334 29.024 40.1192L31.9591 52.0921L35.8516 66.9464C37.0418 75.4697 23.8966 82.9327 13.8834 76.4272Z" fill="url(#paint6_linear_18_26)"/>
<path d="M13.8834 76.4272C13.8544 76.1676 13.8246 75.9081 13.7939 75.6487C13.4171 70.0656 12.623 64.5185 11.4181 59.0539L8.0356 45.2645C7.68771 43.883 7.61646 42.4463 7.82595 41.0371C8.03545 39.6279 8.52154 38.2741 9.25627 37.0535C9.991 35.8329 10.9599 34.7697 12.1071 33.925C13.2543 33.0803 14.5573 32.4708 15.941 32.1315C17.3246 31.7923 18.7617 31.7301 20.1696 31.9484C21.5774 32.1668 22.9282 32.6614 24.1441 33.4037C25.3601 34.1461 26.4172 35.1216 27.2547 36.2741C28.0922 37.4266 28.6935 38.7334 29.024 40.1192L31.9591 52.0921L35.8516 66.9464C37.0418 75.4697 23.8966 82.9327 13.8834 76.4272Z" fill="url(#paint7_radial_18_26)"/>
<g filter="url(#filter1_f_18_26)">
<path d="M20.1958 40.2432L28.1643 71.4193" stroke="#FFDAC3" stroke-width="3.29809" stroke-linecap="round"/>
</g>
<path d="M54.6209 64.0418C54.6209 67.469 52.7328 72.2206 46.7195 73.2005C40.3303 74.243 36.402 68.4534 35.5161 66.1223L31.9188 51.966L30.1113 29.1297C29.9783 27.7054 30.1294 26.2689 30.5559 24.9034C30.9824 23.538 31.6758 22.2708 32.5958 21.1755C33.5159 20.0801 34.6443 19.1783 35.9155 18.5225C37.1868 17.8666 38.5757 17.4697 40.0016 17.3548C41.4274 17.2398 42.8619 17.4092 44.2218 17.853C45.5818 18.2968 46.84 19.0062 47.9236 19.9401C49.0072 20.874 49.8946 22.0137 50.5343 23.2932C51.174 24.5727 51.5532 25.9665 51.65 27.3937L54.6209 64.0418Z" fill="url(#paint8_linear_18_26)"/>
<path d="M54.6209 64.0418C54.6209 67.469 52.7328 72.2206 46.7195 73.2005C40.3303 74.243 36.402 68.4534 35.5161 66.1223L31.9188 51.966L30.1113 29.1297C29.9783 27.7054 30.1294 26.2689 30.5559 24.9034C30.9824 23.538 31.6758 22.2708 32.5958 21.1755C33.5159 20.0801 34.6443 19.1783 35.9155 18.5225C37.1868 17.8666 38.5757 17.4697 40.0016 17.3548C41.4274 17.2398 42.8619 17.4092 44.2218 17.853C45.5818 18.2968 46.84 19.0062 47.9236 19.9401C49.0072 20.874 49.8946 22.0137 50.5343 23.2932C51.174 24.5727 51.5532 25.9665 51.65 27.3937L54.6209 64.0418Z" fill="url(#paint9_linear_18_26)"/>
<path d="M54.6209 64.0418C54.6209 67.469 52.7328 72.2206 46.7195 73.2005C40.3303 74.243 36.402 68.4534 35.5161 66.1223L31.9188 51.966L30.1113 29.1297C29.9783 27.7054 30.1294 26.2689 30.5559 24.9034C30.9824 23.538 31.6758 22.2708 32.5958 21.1755C33.5159 20.0801 34.6443 19.1783 35.9155 18.5225C37.1868 17.8666 38.5757 17.4697 40.0016 17.3548C41.4274 17.2398 42.8619 17.4092 44.2218 17.853C45.5818 18.2968 46.84 19.0062 47.9236 19.9401C49.0072 20.874 49.8946 22.0137 50.5343 23.2932C51.174 24.5727 51.5532 25.9665 51.65 27.3937L54.6209 64.0418Z" fill="url(#paint10_radial_18_26)"/>
<path d="M54.6209 64.0418C54.6209 67.469 52.7328 72.2206 46.7195 73.2005C40.3303 74.243 36.402 68.4534 35.5161 66.1223L31.9188 51.966L30.1113 29.1297C29.9783 27.7054 30.1294 26.2689 30.5559 24.9034C30.9824 23.538 31.6758 22.2708 32.5958 21.1755C33.5159 20.0801 34.6443 19.1783 35.9155 18.5225C37.1868 17.8666 38.5757 17.4697 40.0016 17.3548C41.4274 17.2398 42.8619 17.4092 44.2218 17.853C45.5818 18.2968 46.84 19.0062 47.9236 19.9401C49.0072 20.874 49.8946 22.0137 50.5343 23.2932C51.174 24.5727 51.5532 25.9665 51.65 27.3937L54.6209 64.0418Z" fill="url(#paint11_linear_18_26)"/>
<path d="M54.6209 64.0418C54.6209 67.469 52.7328 72.2206 46.7195 73.2005C40.3303 74.243 36.402 68.4534 35.5161 66.1223L31.9188 51.966L30.1113 29.1297C29.9783 27.7054 30.1294 26.2689 30.5559 24.9034C30.9824 23.538 31.6758 22.2708 32.5958 21.1755C33.5159 20.0801 34.6443 19.1783 35.9155 18.5225C37.1868 17.8666 38.5757 17.4697 40.0016 17.3548C41.4274 17.2398 42.8619 17.4092 44.2218 17.853C45.5818 18.2968 46.84 19.0062 47.9236 19.9401C49.0072 20.874 49.8946 22.0137 50.5343 23.2932C51.174 24.5727 51.5532 25.9665 51.65 27.3937L54.6209 64.0418Z" fill="url(#paint12_radial_18_26)"/>
<g filter="url(#filter2_f_18_26)">
<path d="M43.083 26.8523L46.2149 57.1336" stroke="#FFDAC2" stroke-width="3.53366" stroke-linecap="round"/>
</g>
<path d="M54.5319 62.9153C55.9189 64.1994 57.7534 65.3135 60.1426 66.0025C67.3594 68.0696 71.2922 61.3494 72.1692 57.1212L74.46 49.5912L78.5762 20.0079C78.9138 17.1976 78.1351 14.367 76.4076 12.1248C74.6801 9.88256 72.1418 8.40772 69.3383 8.01735C66.5349 7.62699 63.6902 8.35228 61.4159 10.0373C59.1415 11.7223 57.6192 14.2324 57.1762 17.028L53.1494 45.9447L54.5275 62.9153H54.5319Z" fill="url(#paint13_linear_18_26)"/>
<path d="M54.5319 62.9153C55.9189 64.1994 57.7534 65.3135 60.1426 66.0025C67.3594 68.0696 71.2922 61.3494 72.1692 57.1212L74.46 49.5912L78.5762 20.0079C78.9138 17.1976 78.1351 14.367 76.4076 12.1248C74.6801 9.88256 72.1418 8.40772 69.3383 8.01735C66.5349 7.62699 63.6902 8.35228 61.4159 10.0373C59.1415 11.7223 57.6192 14.2324 57.1762 17.028L53.1494 45.9447L54.5275 62.9153H54.5319Z" fill="url(#paint14_linear_18_26)"/>
<path d="M54.5319 62.9153C55.9189 64.1994 57.7534 65.3135 60.1426 66.0025C67.3594 68.0696 71.2922 61.3494 72.1692 57.1212L74.46 49.5912L78.5762 20.0079C78.9138 17.1976 78.1351 14.367 76.4076 12.1248C74.6801 9.88256 72.1418 8.40772 69.3383 8.01735C66.5349 7.62699 63.6902 8.35228 61.4159 10.0373C59.1415 11.7223 57.6192 14.2324 57.1762 17.028L53.1494 45.9447L54.5275 62.9153H54.5319Z" fill="url(#paint15_radial_18_26)"/>
<path d="M54.5319 62.9153C55.9189 64.1994 57.7534 65.3135 60.1426 66.0025C67.3594 68.0696 71.2922 61.3494 72.1692 57.1212L74.46 49.5912L78.5762 20.0079C78.9138 17.1976 78.1351 14.367 76.4076 12.1248C74.6801 9.88256 72.1418 8.40772 69.3383 8.01735C66.5349 7.62699 63.6902 8.35228 61.4159 10.0373C59.1415 11.7223 57.6192 14.2324 57.1762 17.028L53.1494 45.9447L54.5275 62.9153H54.5319Z" fill="url(#paint16_radial_18_26)"/>
<path d="M54.5319 62.9153C55.9189 64.1994 57.7534 65.3135 60.1426 66.0025C67.3594 68.0696 71.2922 61.3494 72.1692 57.1212L74.46 49.5912L78.5762 20.0079C78.9138 17.1976 78.1351 14.367 76.4076 12.1248C74.6801 9.88256 72.1418 8.40772 69.3383 8.01735C66.5349 7.62699 63.6902 8.35228 61.4159 10.0373C59.1415 11.7223 57.6192 14.2324 57.1762 17.028L53.1494 45.9447L54.5275 62.9153H54.5319Z" fill="url(#paint17_radial_18_26)"/>
<path d="M54.5319 62.9153C55.9189 64.1994 57.7534 65.3135 60.1426 66.0025C67.3594 68.0696 71.2922 61.3494 72.1692 57.1212L74.46 49.5912L78.5762 20.0079C78.9138 17.1976 78.1351 14.367 76.4076 12.1248C74.6801 9.88256 72.1418 8.40772 69.3383 8.01735C66.5349 7.62699 63.6902 8.35228 61.4159 10.0373C59.1415 11.7223 57.6192 14.2324 57.1762 17.028L53.1494 45.9447L54.5275 62.9153H54.5319Z" fill="url(#paint18_linear_18_26)"/>
<g filter="url(#filter3_f_18_26)">
<path d="M70.0564 17.9846L65.9312 58.042" stroke="url(#paint19_linear_18_26)" stroke-width="3.53366" stroke-linecap="round"/>
</g>
<path d="M90.6385 72.1002L90.6072 72.1181C91.0367 70.4626 91.5021 68.7759 91.9897 67.0712C95.408 55.1564 100.079 42.4632 103.556 33.658C103.842 32.9421 104.048 32.2128 104.173 31.479C105.072 26.3516 102.298 21.0542 97.1574 19.3719C90.6564 17.4838 85.4351 21.005 83.3188 26.5038C81.8809 29.7563 80.5322 33.0476 79.2741 36.3738C77.7081 40.4587 76.0795 44.9687 74.4599 49.595L74.4823 49.4474L74.4375 49.6353L71.753 58.7179C70.9342 61.5366 69.9812 68.0242 76.4061 72.1405C82.8311 76.2567 89.1039 74.8205 90.6206 72.1405L90.6385 72.1002Z" fill="url(#paint20_linear_18_26)"/>
<path d="M90.6385 72.1002L90.6072 72.1181C91.0367 70.4626 91.5021 68.7759 91.9897 67.0712C95.408 55.1564 100.079 42.4632 103.556 33.658C103.842 32.9421 104.048 32.2128 104.173 31.479C105.072 26.3516 102.298 21.0542 97.1574 19.3719C90.6564 17.4838 85.4351 21.005 83.3188 26.5038C81.8809 29.7563 80.5322 33.0476 79.2741 36.3738C77.7081 40.4587 76.0795 44.9687 74.4599 49.595L74.4823 49.4474L74.4375 49.6353L71.753 58.7179C70.9342 61.5366 69.9812 68.0242 76.4061 72.1405C82.8311 76.2567 89.1039 74.8205 90.6206 72.1405L90.6385 72.1002Z" fill="url(#paint21_linear_18_26)"/>
<path d="M90.6385 72.1002L90.6072 72.1181C91.0367 70.4626 91.5021 68.7759 91.9897 67.0712C95.408 55.1564 100.079 42.4632 103.556 33.658C103.842 32.9421 104.048 32.2128 104.173 31.479C105.072 26.3516 102.298 21.0542 97.1574 19.3719C90.6564 17.4838 85.4351 21.005 83.3188 26.5038C81.8809 29.7563 80.5322 33.0476 79.2741 36.3738C77.7081 40.4587 76.0795 44.9687 74.4599 49.595L74.4823 49.4474L74.4375 49.6353L71.753 58.7179C70.9342 61.5366 69.9812 68.0242 76.4061 72.1405C82.8311 76.2567 89.1039 74.8205 90.6206 72.1405L90.6385 72.1002Z" fill="url(#paint22_radial_18_26)"/>
<g filter="url(#filter4_f_18_26)">
<path d="M85.6562 72.2917C87.2401 66.699 92.2288 48.7754 98.9401 30.2075" stroke="url(#paint23_linear_18_26)" stroke-width="1.76683" stroke-linecap="round"/>
</g>
<g filter="url(#filter5_f_18_26)">
<path d="M118.379 67.5405C112.411 71.3615 98.5812 81.9698 90.9751 93.8219" stroke="url(#paint24_linear_18_26)" stroke-width="2.35578" stroke-linecap="round"/>
</g>
<path d="M57.1711 17.0272C57.5663 14.1888 59.0728 11.6236 61.3593 9.89598C62.4914 9.04053 63.781 8.41645 65.1543 8.05938C66.5276 7.7023 67.9578 7.61922 69.3633 7.81488C70.7687 8.01054 72.1219 8.4811 73.3455 9.1997C74.569 9.9183 75.6391 10.8709 76.4945 12.003C77.35 13.1352 77.9741 14.4247 78.3311 15.7981C78.6882 17.1714 78.7713 18.6016 78.5756 20.007L74.4594 49.5904C77.5466 40.7583 80.6964 32.3379 83.3183 26.5036C85.4346 21.0003 90.656 17.4836 97.1614 19.3717C103.032 21.2956 105.819 27.9353 103.56 33.6578C99.5775 43.7158 94.0474 58.8609 90.6067 72.1179C95.8863 69.8987 101.443 65.2813 106.633 61.353C113.447 56.6999 120.029 58.1987 123.59 63.5051C125.161 65.8418 125.795 68.6839 125.367 71.4667C124.938 74.2494 123.478 76.7691 121.277 78.5249L110.468 87.1512C106.735 90.6794 103.213 94.4248 99.922 98.368C97.3236 101.45 94.935 104.702 92.7722 108.104C91.2152 110.471 89.609 112.918 86.9871 116.265C84.0773 119.992 80.5967 123.235 76.6741 125.875L76.6383 125.844C70.3289 130.261 62.8106 132.625 55.1085 132.613C48.3379 132.616 41.692 130.792 35.8724 127.331C30.0528 123.871 25.2753 118.904 22.0443 112.954C16.2636 102.699 15.3241 92.1041 14.4695 82.4757C14.2797 80.1964 14.0545 77.9203 13.7939 75.648C13.4172 70.0649 12.623 64.5178 11.4181 59.0533L8.0356 45.2638C7.68771 43.8823 7.61646 42.4456 7.82595 41.0364C8.03545 39.6273 8.52154 38.2734 9.25627 37.0528C9.991 35.8323 10.9599 34.769 12.1071 33.9243C13.2543 33.0796 14.5573 32.4701 15.941 32.1309C17.3246 31.7917 18.7617 31.7295 20.1696 31.9478C21.5774 32.1661 22.9282 32.6607 24.1441 33.4031C25.3601 34.1455 26.4172 35.121 27.2547 36.2735C28.0922 37.426 28.6935 38.7327 29.024 40.1185L31.9636 52.1004L30.1112 29.1299C29.9782 27.7056 30.1294 26.2691 30.5559 24.9036C30.9824 23.5382 31.6757 22.271 32.5958 21.1757C33.5158 20.0803 34.6442 19.1785 35.9155 18.5227C37.1868 17.8668 38.5757 17.4699 40.0015 17.3549C41.4274 17.24 42.8619 17.4094 44.2218 17.8532C45.5817 18.297 46.84 19.0064 47.9236 19.9403C49.0072 20.8742 49.8946 22.0139 50.5342 23.2934C51.1739 24.5729 51.5532 25.9667 51.65 27.3939L53.1488 45.9797L57.1756 17.0317L57.1711 17.0272Z" fill="url(#paint25_radial_18_26)"/>
<path d="M57.1711 17.0272C57.5663 14.1888 59.0728 11.6236 61.3593 9.89598C62.4914 9.04053 63.781 8.41645 65.1543 8.05938C66.5276 7.7023 67.9578 7.61922 69.3633 7.81488C70.7687 8.01054 72.1219 8.4811 73.3455 9.1997C74.569 9.9183 75.6391 10.8709 76.4945 12.003C77.35 13.1352 77.9741 14.4247 78.3311 15.7981C78.6882 17.1714 78.7713 18.6016 78.5756 20.007L74.4594 49.5904C77.5466 40.7583 80.6964 32.3379 83.3183 26.5036C85.4346 21.0003 90.656 17.4836 97.1614 19.3717C103.032 21.2956 105.819 27.9353 103.56 33.6578C99.5775 43.7158 94.0474 58.8609 90.6067 72.1179C95.8863 69.8987 101.443 65.2813 106.633 61.353C113.447 56.6999 120.029 58.1987 123.59 63.5051C125.161 65.8418 125.795 68.6839 125.367 71.4667C124.938 74.2494 123.478 76.7691 121.277 78.5249L110.468 87.1512C106.735 90.6794 103.213 94.4248 99.922 98.368C97.3236 101.45 94.935 104.702 92.7722 108.104C91.2152 110.471 89.609 112.918 86.9871 116.265C84.0773 119.992 80.5967 123.235 76.6741 125.875L76.6383 125.844C70.3289 130.261 62.8106 132.625 55.1085 132.613C48.3379 132.616 41.692 130.792 35.8724 127.331C30.0528 123.871 25.2753 118.904 22.0443 112.954C16.2636 102.699 15.3241 92.1041 14.4695 82.4757C14.2797 80.1964 14.0545 77.9203 13.7939 75.648C13.4172 70.0649 12.623 64.5178 11.4181 59.0533L8.0356 45.2638C7.68771 43.8823 7.61646 42.4456 7.82595 41.0364C8.03545 39.6273 8.52154 38.2734 9.25627 37.0528C9.991 35.8323 10.9599 34.769 12.1071 33.9243C13.2543 33.0796 14.5573 32.4701 15.941 32.1309C17.3246 31.7917 18.7617 31.7295 20.1696 31.9478C21.5774 32.1661 22.9282 32.6607 24.1441 33.4031C25.3601 34.1455 26.4172 35.121 27.2547 36.2735C28.0922 37.426 28.6935 38.7327 29.024 40.1185L31.9636 52.1004L30.1112 29.1299C29.9782 27.7056 30.1294 26.2691 30.5559 24.9036C30.9824 23.5382 31.6757 22.271 32.5958 21.1757C33.5158 20.0803 34.6442 19.1785 35.9155 18.5227C37.1868 17.8668 38.5757 17.4699 40.0015 17.3549C41.4274 17.24 42.8619 17.4094 44.2218 17.8532C45.5817 18.297 46.84 19.0064 47.9236 19.9403C49.0072 20.8742 49.8946 22.0139 50.5342 23.2934C51.1739 24.5729 51.5532 25.9667 51.65 27.3939L53.1488 45.9797L57.1756 17.0317L57.1711 17.0272Z" fill="url(#paint26_radial_18_26)"/>
<path d="M57.1711 17.0272C57.5663 14.1888 59.0728 11.6236 61.3593 9.89598C62.4914 9.04053 63.781 8.41645 65.1543 8.05938C66.5276 7.7023 67.9578 7.61922 69.3633 7.81488C70.7687 8.01054 72.1219 8.4811 73.3455 9.1997C74.569 9.9183 75.6391 10.8709 76.4945 12.003C77.35 13.1352 77.9741 14.4247 78.3311 15.7981C78.6882 17.1714 78.7713 18.6016 78.5756 20.007L74.4594 49.5904C77.5466 40.7583 80.6964 32.3379 83.3183 26.5036C85.4346 21.0003 90.656 17.4836 97.1614 19.3717C103.032 21.2956 105.819 27.9353 103.56 33.6578C99.5775 43.7158 94.0474 58.8609 90.6067 72.1179C95.8863 69.8987 101.443 65.2813 106.633 61.353C113.447 56.6999 120.029 58.1987 123.59 63.5051C125.161 65.8418 125.795 68.6839 125.367 71.4667C124.938 74.2494 123.478 76.7691 121.277 78.5249L110.468 87.1512C106.735 90.6794 103.213 94.4248 99.922 98.368C97.3236 101.45 94.935 104.702 92.7722 108.104C91.2152 110.471 89.609 112.918 86.9871 116.265C84.0773 119.992 80.5967 123.235 76.6741 125.875L76.6383 125.844C70.3289 130.261 62.8106 132.625 55.1085 132.613C48.3379 132.616 41.692 130.792 35.8724 127.331C30.0528 123.871 25.2753 118.904 22.0443 112.954C16.2636 102.699 15.3241 92.1041 14.4695 82.4757C14.2797 80.1964 14.0545 77.9203 13.7939 75.648C13.4172 70.0649 12.623 64.5178 11.4181 59.0533L8.0356 45.2638C7.68771 43.8823 7.61646 42.4456 7.82595 41.0364C8.03545 39.6273 8.52154 38.2734 9.25627 37.0528C9.991 35.8323 10.9599 34.769 12.1071 33.9243C13.2543 33.0796 14.5573 32.4701 15.941 32.1309C17.3246 31.7917 18.7617 31.7295 20.1696 31.9478C21.5774 32.1661 22.9282 32.6607 24.1441 33.4031C25.3601 34.1455 26.4172 35.121 27.2547 36.2735C28.0922 37.426 28.6935 38.7327 29.024 40.1185L31.9636 52.1004L30.1112 29.1299C29.9782 27.7056 30.1294 26.2691 30.5559 24.9036C30.9824 23.5382 31.6757 22.271 32.5958 21.1757C33.5158 20.0803 34.6442 19.1785 35.9155 18.5227C37.1868 17.8668 38.5757 17.4699 40.0015 17.3549C41.4274 17.24 42.8619 17.4094 44.2218 17.8532C45.5817 18.297 46.84 19.0064 47.9236 19.9403C49.0072 20.8742 49.8946 22.0139 50.5342 23.2934C51.1739 24.5729 51.5532 25.9667 51.65 27.3939L53.1488 45.9797L57.1756 17.0317L57.1711 17.0272Z" fill="url(#paint27_radial_18_26)"/>
<path d="M57.1711 17.0272C57.5663 14.1888 59.0728 11.6236 61.3593 9.89598C62.4914 9.04053 63.781 8.41645 65.1543 8.05938C66.5276 7.7023 67.9578 7.61922 69.3633 7.81488C70.7687 8.01054 72.1219 8.4811 73.3455 9.1997C74.569 9.9183 75.6391 10.8709 76.4945 12.003C77.35 13.1352 77.9741 14.4247 78.3311 15.7981C78.6882 17.1714 78.7713 18.6016 78.5756 20.007L74.4594 49.5904C77.5466 40.7583 80.6964 32.3379 83.3183 26.5036C85.4346 21.0003 90.656 17.4836 97.1614 19.3717C103.032 21.2956 105.819 27.9353 103.56 33.6578C99.5775 43.7158 94.0474 58.8609 90.6067 72.1179C95.8863 69.8987 101.443 65.2813 106.633 61.353C113.447 56.6999 120.029 58.1987 123.59 63.5051C125.161 65.8418 125.795 68.6839 125.367 71.4667C124.938 74.2494 123.478 76.7691 121.277 78.5249L110.468 87.1512C106.735 90.6794 103.213 94.4248 99.922 98.368C97.3236 101.45 94.935 104.702 92.7722 108.104C91.2152 110.471 89.609 112.918 86.9871 116.265C84.0773 119.992 80.5967 123.235 76.6741 125.875L76.6383 125.844C70.3289 130.261 62.8106 132.625 55.1085 132.613C48.3379 132.616 41.692 130.792 35.8724 127.331C30.0528 123.871 25.2753 118.904 22.0443 112.954C16.2636 102.699 15.3241 92.1041 14.4695 82.4757C14.2797 80.1964 14.0545 77.9203 13.7939 75.648C13.4172 70.0649 12.623 64.5178 11.4181 59.0533L8.0356 45.2638C7.68771 43.8823 7.61646 42.4456 7.82595 41.0364C8.03545 39.6273 8.52154 38.2734 9.25627 37.0528C9.991 35.8323 10.9599 34.769 12.1071 33.9243C13.2543 33.0796 14.5573 32.4701 15.941 32.1309C17.3246 31.7917 18.7617 31.7295 20.1696 31.9478C21.5774 32.1661 22.9282 32.6607 24.1441 33.4031C25.3601 34.1455 26.4172 35.121 27.2547 36.2735C28.0922 37.426 28.6935 38.7327 29.024 40.1185L31.9636 52.1004L30.1112 29.1299C29.9782 27.7056 30.1294 26.2691 30.5559 24.9036C30.9824 23.5382 31.6757 22.271 32.5958 21.1757C33.5158 20.0803 34.6442 19.1785 35.9155 18.5227C37.1868 17.8668 38.5757 17.4699 40.0015 17.3549C41.4274 17.24 42.8619 17.4094 44.2218 17.8532C45.5817 18.297 46.84 19.0064 47.9236 19.9403C49.0072 20.8742 49.8946 22.0139 50.5342 23.2934C51.1739 24.5729 51.5532 25.9667 51.65 27.3939L53.1488 45.9797L57.1756 17.0317L57.1711 17.0272Z" fill="url(#paint28_radial_18_26)"/>
<path d="M57.1711 17.0272C57.5663 14.1888 59.0728 11.6236 61.3593 9.89598C62.4914 9.04053 63.781 8.41645 65.1543 8.05938C66.5276 7.7023 67.9578 7.61922 69.3633 7.81488C70.7687 8.01054 72.1219 8.4811 73.3455 9.1997C74.569 9.9183 75.6391 10.8709 76.4945 12.003C77.35 13.1352 77.9741 14.4247 78.3311 15.7981C78.6882 17.1714 78.7713 18.6016 78.5756 20.007L74.4594 49.5904C77.5466 40.7583 80.6964 32.3379 83.3183 26.5036C85.4346 21.0003 90.656 17.4836 97.1614 19.3717C103.032 21.2956 105.819 27.9353 103.56 33.6578C99.5775 43.7158 94.0474 58.8609 90.6067 72.1179C95.8863 69.8987 101.443 65.2813 106.633 61.353C113.447 56.6999 120.029 58.1987 123.59 63.5051C125.161 65.8418 125.795 68.6839 125.367 71.4667C124.938 74.2494 123.478 76.7691 121.277 78.5249L110.468 87.1512C106.735 90.6794 103.213 94.4248 99.922 98.368C97.3236 101.45 94.935 104.702 92.7722 108.104C91.2152 110.471 89.609 112.918 86.9871 116.265C84.0773 119.992 80.5967 123.235 76.6741 125.875L76.6383 125.844C70.3289 130.261 62.8106 132.625 55.1085 132.613C48.3379 132.616 41.692 130.792 35.8724 127.331C30.0528 123.871 25.2753 118.904 22.0443 112.954C16.2636 102.699 15.3241 92.1041 14.4695 82.4757C14.2797 80.1964 14.0545 77.9203 13.7939 75.648C13.4172 70.0649 12.623 64.5178 11.4181 59.0533L8.0356 45.2638C7.68771 43.8823 7.61646 42.4456 7.82595 41.0364C8.03545 39.6273 8.52154 38.2734 9.25627 37.0528C9.991 35.8323 10.9599 34.769 12.1071 33.9243C13.2543 33.0796 14.5573 32.4701 15.941 32.1309C17.3246 31.7917 18.7617 31.7295 20.1696 31.9478C21.5774 32.1661 22.9282 32.6607 24.1441 33.4031C25.3601 34.1455 26.4172 35.121 27.2547 36.2735C28.0922 37.426 28.6935 38.7327 29.024 40.1185L31.9636 52.1004L30.1112 29.1299C29.9782 27.7056 30.1294 26.2691 30.5559 24.9036C30.9824 23.5382 31.6757 22.271 32.5958 21.1757C33.5158 20.0803 34.6442 19.1785 35.9155 18.5227C37.1868 17.8668 38.5757 17.4699 40.0015 17.3549C41.4274 17.24 42.8619 17.4094 44.2218 17.8532C45.5817 18.297 46.84 19.0064 47.9236 19.9403C49.0072 20.8742 49.8946 22.0139 50.5342 23.2934C51.1739 24.5729 51.5532 25.9667 51.65 27.3939L53.1488 45.9797L57.1756 17.0317L57.1711 17.0272Z" fill="url(#paint29_radial_18_26)"/>
<g filter="url(#filter6_f_18_26)">
<path d="M24.9478 77.0841C28.6569 74.847 31.3816 72.5383 33.48 67.6436" stroke="url(#paint30_linear_18_26)" stroke-width="1.17789" stroke-linecap="round"/>
</g>
<g filter="url(#filter7_f_18_26)">
<path d="M40.8896 64.6103C45.1401 63.7826 48.4913 62.5522 52.1422 58.6731" stroke="url(#paint31_linear_18_26)" stroke-width="1.17789" stroke-linecap="round"/>
</g>
<g filter="url(#filter8_f_18_26)">
<path d="M58.3164 59.147C60.7593 62.0283 65.6093 64.2252 69.7166 62.6995" stroke="url(#paint32_linear_18_26)" stroke-width="1.17789" stroke-linecap="round"/>
</g>
<g filter="url(#filter9_f_18_26)">
<path d="M76.3574 70.4583C78.8003 73.3396 83.6504 75.5365 87.7532 74.0108" stroke="url(#paint33_linear_18_26)" stroke-width="1.17789" stroke-linecap="round"/>
</g>
</g>
<defs>
<filter id="filter0_d_18_26" x="0.641167" y="0.644341" width="131.924" height="139.037" filterUnits="userSpaceOnUse" color-interpolation-filters="sRGB">
<feFlood flood-opacity="0" result="BackgroundImageFix"/>
<feColorMatrix in="SourceAlpha" type="matrix" values="0 0 0 0 0 0 0 0 0 0 0 0 0 0 0 0 0 0 127 0" result="hardAlpha"/>
<feOffset/>
<feGaussianBlur stdDeviation="3.53366"/>
<feComposite in2="hardAlpha" operator="out"/>
<feColorMatrix type="matrix" values="0 0 0 0 0.988235 0 0 0 0 0.772549 0 0 0 0 0.698039 0 0 0 1 0"/>
<feBlend mode="normal" in2="BackgroundImageFix" result="effect1_dropShadow_18_26"/>
<feBlend mode="normal" in="SourceGraphic" in2="effect1_dropShadow_18_26" result="shape"/>
</filter>
<filter id="filter1_f_18_26" x="14.5416" y="34.5889" width="19.2772" height="42.4847" filterUnits="userSpaceOnUse" color-interpolation-filters="sRGB">
<feFlood flood-opacity="0" result="BackgroundImageFix"/>
<feBlend mode="normal" in="SourceGraphic" in2="BackgroundImageFix" result="shape"/>
<feGaussianBlur stdDeviation="2.00241" result="effect1_foregroundBlur_18_26"/>
</filter>
<filter id="filter2_f_18_26" x="36.6044" y="20.3737" width="16.0891" height="43.2385" filterUnits="userSpaceOnUse" color-interpolation-filters="sRGB">
<feFlood flood-opacity="0" result="BackgroundImageFix"/>
<feBlend mode="normal" in="SourceGraphic" in2="BackgroundImageFix" result="shape"/>
<feGaussianBlur stdDeviation="2.35578" result="effect1_foregroundBlur_18_26"/>
</filter>
<filter id="filter3_f_18_26" x="59.4525" y="11.506" width="17.0823" height="53.0147" filterUnits="userSpaceOnUse" color-interpolation-filters="sRGB">
<feFlood flood-opacity="0" result="BackgroundImageFix"/>
<feBlend mode="normal" in="SourceGraphic" in2="BackgroundImageFix" result="shape"/>
<feGaussianBlur stdDeviation="2.35578" result="effect1_foregroundBlur_18_26"/>
</filter>
<filter id="filter4_f_18_26" x="81.8277" y="26.3793" width="20.9407" height="49.7408" filterUnits="userSpaceOnUse" color-interpolation-filters="sRGB">
<feFlood flood-opacity="0" result="BackgroundImageFix"/>
<feBlend mode="normal" in="SourceGraphic" in2="BackgroundImageFix" result="shape"/>
<feGaussianBlur stdDeviation="1.47236" result="effect1_foregroundBlur_18_26"/>
</filter>
<filter id="filter5_f_18_26" x="86.2632" y="62.8289" width="36.8281" height="35.7048" filterUnits="userSpaceOnUse" color-interpolation-filters="sRGB">
<feFlood flood-opacity="0" result="BackgroundImageFix"/>
<feBlend mode="normal" in="SourceGraphic" in2="BackgroundImageFix" result="shape"/>
<feGaussianBlur stdDeviation="1.76683" result="effect1_foregroundBlur_18_26"/>
</filter>
<filter id="filter6_f_18_26" x="23.181" y="65.8766" width="12.0662" height="12.9744" filterUnits="userSpaceOnUse" color-interpolation-filters="sRGB">
<feFlood flood-opacity="0" result="BackgroundImageFix"/>
<feBlend mode="normal" in="SourceGraphic" in2="BackgroundImageFix" result="shape"/>
<feGaussianBlur stdDeviation="0.588944" result="effect1_foregroundBlur_18_26"/>
</filter>
<filter id="filter7_f_18_26" x="39.1229" y="56.9063" width="14.786" height="9.47101" filterUnits="userSpaceOnUse" color-interpolation-filters="sRGB">
<feFlood flood-opacity="0" result="BackgroundImageFix"/>
<feBlend mode="normal" in="SourceGraphic" in2="BackgroundImageFix" result="shape"/>
<feGaussianBlur stdDeviation="0.588944" result="effect1_foregroundBlur_18_26"/>
</filter>
<filter id="filter8_f_18_26" x="56.5497" y="57.3802" width="14.9339" height="7.58527" filterUnits="userSpaceOnUse" color-interpolation-filters="sRGB">
<feFlood flood-opacity="0" result="BackgroundImageFix"/>
<feBlend mode="normal" in="SourceGraphic" in2="BackgroundImageFix" result="shape"/>
<feGaussianBlur stdDeviation="0.588944" result="effect1_foregroundBlur_18_26"/>
</filter>
<filter id="filter9_f_18_26" x="74.5907" y="68.6915" width="14.9295" height="7.58527" filterUnits="userSpaceOnUse" color-interpolation-filters="sRGB">
<feFlood flood-opacity="0" result="BackgroundImageFix"/>
<feBlend mode="normal" in="SourceGraphic" in2="BackgroundImageFix" result="shape"/>
<feGaussianBlur stdDeviation="0.588944" result="effect1_foregroundBlur_18_26"/>
</filter>
<radialGradient id="paint0_radial_18_26" cx="0" cy="0" r="1" gradientUnits="userSpaceOnUse" gradientTransform="translate(94.1592 67.4155) rotate(169.287) scale(81.9756 229.133)">
<stop offset="0.853" stop-color="#DDA492" stop-opacity="0"/>
<stop offset="1" stop-color="#DDA492"/>
</radialGradient>
<radialGradient id="paint1_radial_18_26" cx="0" cy="0" r="1" gradientUnits="userSpaceOnUse" gradientTransform="translate(81.5776 104.557) rotate(141.22) scale(19.1979 31.8051)">
<stop stop-color="#FEC8B7"/>
<stop offset="1" stop-color="#FEC8B7" stop-opacity="0"/>
</radialGradient>
<radialGradient id="paint2_radial_18_26" cx="0" cy="0" r="1" gradientUnits="userSpaceOnUse" gradientTransform="translate(71.8688 4.45925) rotate(98.6745) scale(138.728 93.0872)">
<stop offset="0.778" stop-color="#BA7D97" stop-opacity="0"/>
<stop offset="1" stop-color="#BA7D97"/>
</radialGradient>
<radialGradient id="paint3_radial_18_26" cx="0" cy="0" r="1" gradientUnits="userSpaceOnUse" gradientTransform="translate(71.8688 4.45924) rotate(99.8514) scale(130.072 87.2793)">
<stop offset="0.968" stop-color="#BF7B8A" stop-opacity="0"/>
<stop offset="1" stop-color="#BF7B8A"/>
</radialGradient>
<linearGradient id="paint4_linear_18_26" x1="32.5273" y1="52.5798" x2="28.3081" y2="53.6491" gradientUnits="userSpaceOnUse">
<stop stop-color="#DE9B80"/>
<stop offset="1" stop-color="#DE9B80" stop-opacity="0"/>
</linearGradient>
<radialGradient id="paint5_radial_18_26" cx="0" cy="0" r="1" gradientUnits="userSpaceOnUse" gradientTransform="translate(12.0579 59.5372) rotate(-8.25944) scale(8.7596 22.9537)">
<stop stop-color="#DDA391"/>
<stop offset="1" stop-color="#DDA391" stop-opacity="0"/>
</radialGradient>
<linearGradient id="paint6_linear_18_26" x1="37.082" y1="70.132" x2="29.5206" y2="64.8122" gradientUnits="userSpaceOnUse">
<stop stop-color="#FCC5B2"/>
<stop offset="1" stop-color="#FCC5B2" stop-opacity="0"/>
</linearGradient>
<radialGradient id="paint7_radial_18_26" cx="0" cy="0" r="1" gradientUnits="userSpaceOnUse" gradientTransform="translate(12.4664 34.4412) rotate(48.18) scale(15.8261 17.8531)">
<stop stop-color="#DBAB90"/>
<stop offset="1" stop-color="#DBAB90" stop-opacity="0"/>
</radialGradient>
<linearGradient id="paint8_linear_18_26" x1="55.6589" y1="43.5142" x2="49.7127" y2="43.908" gradientUnits="userSpaceOnUse">
<stop stop-color="#D6987D"/>
<stop offset="1" stop-color="#D6987D" stop-opacity="0"/>
</linearGradient>
<linearGradient id="paint9_linear_18_26" x1="30.0755" y1="47.0086" x2="41.6144" y2="45.3889" gradientUnits="userSpaceOnUse">
<stop stop-color="#DC977A"/>
<stop offset="1" stop-color="#DC977A" stop-opacity="0"/>
</linearGradient>
<radialGradient id="paint10_radial_18_26" cx="0" cy="0" r="1" gradientUnits="userSpaceOnUse" gradientTransform="translate(31.1985 58.6638) rotate(-7.85331) scale(4.09312 34.8309)">
<stop stop-color="#CA8363"/>
<stop offset="1" stop-color="#CA8363" stop-opacity="0"/>
</radialGradient>
<linearGradient id="paint11_linear_18_26" x1="52.2316" y1="67.1111" x2="50.3435" y2="52.1315" gradientUnits="userSpaceOnUse">
<stop offset="0.29" stop-color="#FCC5B2"/>
<stop offset="1" stop-color="#FCC5B2" stop-opacity="0"/>
</linearGradient>
<radialGradient id="paint12_radial_18_26" cx="0" cy="0" r="1" gradientUnits="userSpaceOnUse" gradientTransform="translate(32.9464 17.458) rotate(58.762) scale(12.1324 14.9109)">
<stop stop-color="#DAB7A2"/>
<stop offset="1" stop-color="#DAB7A2" stop-opacity="0"/>
</radialGradient>
<linearGradient id="paint13_linear_18_26" x1="53.1539" y1="38.8397" x2="62.5899" y2="39.7167" gradientUnits="userSpaceOnUse">
<stop stop-color="#DE9C81"/>
<stop offset="1" stop-color="#DE9C81" stop-opacity="0"/>
</linearGradient>
<linearGradient id="paint14_linear_18_26" x1="76.5002" y1="49.8641" x2="71.8202" y2="49.1572" gradientUnits="userSpaceOnUse">
<stop stop-color="#D7987E"/>
<stop offset="1" stop-color="#D7987E" stop-opacity="0"/>
</linearGradient>
<radialGradient id="paint15_radial_18_26" cx="0" cy="0" r="1" gradientUnits="userSpaceOnUse" gradientTransform="translate(75.2474 53.9088) rotate(-169.592) scale(3.48283 20.4131)">
<stop stop-color="#C2846B"/>
<stop offset="1" stop-color="#C2846B" stop-opacity="0"/>
</radialGradient>
<radialGradient id="paint16_radial_18_26" cx="0" cy="0" r="1" gradientUnits="userSpaceOnUse" gradientTransform="translate(47.6641 54.9155) rotate(3.87848) scale(8.33181 36.6707)">
<stop offset="0.216" stop-color="#D18C6E"/>
<stop offset="1" stop-color="#D18C6E" stop-opacity="0"/>
</radialGradient>
<radialGradient id="paint17_radial_18_26" cx="0" cy="0" r="1" gradientUnits="userSpaceOnUse" gradientTransform="translate(61.892 5.60097) rotate(73.7534) scale(14.3819 21.6815)">
<stop stop-color="#DAAD92"/>
<stop offset="1" stop-color="#D8AA90" stop-opacity="0"/>
</radialGradient>
<linearGradient id="paint18_linear_18_26" x1="60.9792" y1="65.4119" x2="62.3081" y2="51.0408" gradientUnits="userSpaceOnUse">
<stop stop-color="#FCC5B2"/>
<stop offset="1" stop-color="#FCC5B2" stop-opacity="0"/>
</linearGradient>
<linearGradient id="paint19_linear_18_26" x1="78.9332" y1="4.0341" x2="74.1234" y2="43.0535" gradientUnits="userSpaceOnUse">
<stop stop-color="#FFE2C7"/>
<stop offset="1" stop-color="#FFE2C7" stop-opacity="0"/>
</linearGradient>
<linearGradient id="paint20_linear_18_26" x1="76.3659" y1="43.3535" x2="87.7527" y2="46.7852" gradientUnits="userSpaceOnUse">
<stop stop-color="#DF9E80"/>
<stop offset="1" stop-color="#DF9E80" stop-opacity="0"/>
</linearGradient>
<linearGradient id="paint21_linear_18_26" x1="75.2921" y1="70.8429" x2="80.8848" y2="53.9439" gradientUnits="userSpaceOnUse">
<stop stop-color="#FCC5B3"/>
<stop offset="1" stop-color="#FCC5B3" stop-opacity="0"/>
</linearGradient>
<radialGradient id="paint22_radial_18_26" cx="0" cy="0" r="1" gradientUnits="userSpaceOnUse" gradientTransform="translate(92.2314 71.5946) rotate(-154.682) scale(4.95326 13.607)">
<stop offset="0.218" stop-color="#ECB192"/>
<stop offset="1" stop-color="#ECB192" stop-opacity="0"/>
</radialGradient>
<linearGradient id="paint23_linear_18_26" x1="90.4123" y1="64.4619" x2="107.329" y2="6.71803" gradientUnits="userSpaceOnUse">
<stop stop-color="#FFDCC3"/>
<stop offset="1" stop-color="#FFDCC3" stop-opacity="0"/>
</linearGradient>
<linearGradient id="paint24_linear_18_26" x1="118.379" y1="67.5405" x2="116.156" y2="93.8085" gradientUnits="userSpaceOnUse">
<stop stop-color="#FFE1C6"/>
<stop offset="1" stop-color="#FFE1C6" stop-opacity="0"/>
</linearGradient>
<radialGradient id="paint25_radial_18_26" cx="0" cy="0" r="1" gradientUnits="userSpaceOnUse" gradientTransform="translate(132.831 59.4175) rotate(147.308) scale(26.913 8.13376)">
<stop stop-color="#FFD5BC"/>
<stop offset="1" stop-color="#FFD5BC" stop-opacity="0"/>
</radialGradient>
<radialGradient id="paint26_radial_18_26" cx="0" cy="0" r="1" gradientUnits="userSpaceOnUse" gradientTransform="translate(100.884 25.2732) rotate(-30.1734) scale(8.40725 8.31359)">
<stop stop-color="#FFD5BC"/>
<stop offset="1" stop-color="#FFD5BC" stop-opacity="0"/>
</radialGradient>
<radialGradient id="paint27_radial_18_26" cx="0" cy="0" r="1" gradientUnits="userSpaceOnUse" gradientTransform="translate(73.5019 14.5396) rotate(-41.606) scale(10.2854 8.87188)">
<stop stop-color="#FFD5BC"/>
<stop offset="1" stop-color="#FFD5BC" stop-opacity="0"/>
</radialGradient>
<radialGradient id="paint28_radial_18_26" cx="0" cy="0" r="1" gradientUnits="userSpaceOnUse" gradientTransform="translate(43.9212 23.4165) rotate(-49.514) scale(9.11177 7.445)">
<stop stop-color="#FFD5BC"/>
<stop offset="1" stop-color="#FFD5BC" stop-opacity="0"/>
</radialGradient>
<radialGradient id="paint29_radial_18_26" cx="0" cy="0" r="1" gradientUnits="userSpaceOnUse" gradientTransform="translate(23.3015 39.4698) rotate(-61.0204) scale(6.27967 6.82899)">
<stop stop-color="#FFD5BC"/>
<stop offset="1" stop-color="#FFD5BC" stop-opacity="0"/>
</radialGradient>
<linearGradient id="paint30_linear_18_26" x1="33.31" y1="71.7598" x2="25.5026" y2="75.4063" gradientUnits="userSpaceOnUse">
<stop stop-color="#FFD5BF"/>
<stop offset="1" stop-color="#FFD5BF" stop-opacity="0"/>
</linearGradient>
<linearGradient id="paint31_linear_18_26" x1="50.5673" y1="62.4806" x2="41.9814" y2="63.2233" gradientUnits="userSpaceOnUse">
<stop stop-color="#FFD5BF"/>
<stop offset="1" stop-color="#FFD5BF" stop-opacity="0"/>
</linearGradient>
<linearGradient id="paint32_linear_18_26" x1="66.616" y1="64.3236" x2="59.1755" y2="60.0687" gradientUnits="userSpaceOnUse">
<stop stop-color="#FFD5BF"/>
<stop offset="1" stop-color="#FFD5BF" stop-opacity="0"/>
</linearGradient>
<linearGradient id="paint33_linear_18_26" x1="84.657" y1="75.6349" x2="77.2165" y2="71.3799" gradientUnits="userSpaceOnUse">
<stop stop-color="#FFD5BF"/>
<stop offset="1" stop-color="#FFD5BF" stop-opacity="0"/>
</linearGradient>
</defs>
</svg>
