<svg width="103" height="139" viewBox="0 0 103 139" fill="none" xmlns="http://www.w3.org/2000/svg">
<g filter="url(#filter0_d_18_74)">
<path d="M34.6993 21.2991C33.171 14.6262 37.4785 7.85928 44.1514 6.32625C50.8196 4.78852 57.5536 8.86562 59.0913 15.5432L66.2721 48.4233L66.653 22.9779C66.6565 21.3369 66.9858 19.7128 67.6218 18.2C68.2579 16.6872 69.1879 15.3158 70.3581 14.1652C71.5283 13.0147 72.9153 12.108 74.4387 11.4976C75.962 10.8873 77.5914 10.5855 79.2323 10.6098C80.8731 10.6341 82.4929 10.9839 83.9975 11.6391C85.5021 12.2942 86.8616 13.2416 87.9973 14.4263C89.1329 15.6109 90.022 17.0093 90.613 18.5403C91.204 20.0712 91.4851 21.7043 91.44 23.3447L90.9134 58.482C90.8758 61.0553 91.1906 63.6216 91.8492 66.1095L94.191 74.9879C95.8228 80.0996 99.0346 93.1538 96.2037 102.785C93.3352 115.246 83.173 125.216 74.3557 130.2C65.5338 135.185 55.809 137.626 41.5744 135.608C23.2204 131.682 12.8184 118.792 9.12693 102.112C5.98563 89.2319 4.23629 75.6181 3.48389 70.323L43.8598 60.3724L34.704 21.2944L34.6993 21.2991Z" fill="#EDB6A9"/>
<path d="M34.6993 21.2991C33.171 14.6262 37.4785 7.85928 44.1514 6.32625C50.8196 4.78852 57.5536 8.86562 59.0913 15.5432L66.2721 48.4233L66.653 22.9779C66.6565 21.3369 66.9858 19.7128 67.6218 18.2C68.2579 16.6872 69.1879 15.3158 70.3581 14.1652C71.5283 13.0147 72.9153 12.108 74.4387 11.4976C75.962 10.8873 77.5914 10.5855 79.2323 10.6098C80.8731 10.6341 82.4929 10.9839 83.9975 11.6391C85.5021 12.2942 86.8616 13.2416 87.9973 14.4263C89.1329 15.6109 90.022 17.0093 90.613 18.5403C91.204 20.0712 91.4851 21.7043 91.44 23.3447L90.9134 58.482C90.8758 61.0553 91.1906 63.6216 91.8492 66.1095L94.191 74.9879C95.8228 80.0996 99.0346 93.1538 96.2037 102.785C93.3352 115.246 83.173 125.216 74.3557 130.2C65.5338 135.185 55.809 137.626 41.5744 135.608C23.2204 131.682 12.8184 118.792 9.12693 102.112C5.98563 89.2319 4.23629 75.6181 3.48389 70.323L43.8598 60.3724L34.704 21.2944L34.6993 21.2991Z" fill="url(#paint0_radial_18_74)"/>
</g>
<g filter="url(#filter1_f_18_74)">
<path d="M26.2367 57.4954L21.3625 58.2234C13.6566 59.3742 8.34261 66.554 9.49344 74.26L9.57818 74.8274C10.729 82.5333 17.9089 87.8473 25.6148 86.6965L30.489 85.9685C38.195 84.8177 43.5089 77.6379 42.3581 69.9319L42.2733 69.3645C41.1225 61.6586 33.9427 56.3446 26.2367 57.4954Z" fill="#A86257"/>
</g>
<g filter="url(#filter2_f_18_74)">
<path d="M92.8506 94.6961C92.8091 93.9142 92.7495 93.1334 92.6719 92.3542C91.8023 86.5932 88.9702 81.309 84.6544 77.395C80.3385 73.481 74.8036 71.1772 68.9852 70.873H60.3796C53.7961 70.8966 48.4634 76.1728 48.4634 82.6811C48.4697 84.9265 49.1163 87.1235 50.3274 89.0143C51.5385 90.9051 53.2638 92.4112 55.3009 93.3559V93.3794C55.6771 93.5722 56.3072 93.8167 57.149 94.0377C57.4828 94.1318 57.8214 94.2117 58.1694 94.2775C59.472 94.5456 61.132 94.7478 63.0835 94.7478H63.4974V94.7008L92.8506 94.6961Z" fill="#A86257"/>
</g>
<path d="M26.6426 60.5435C25.6487 53.8882 19.4477 49.2987 12.7923 50.2926C6.13694 51.2865 1.54745 57.4875 2.54139 64.1429L4.10769 74.6308C5.10163 81.2862 11.3026 85.8757 17.958 84.8817C24.6134 83.8878 29.2029 77.6868 28.2089 71.0314L26.6426 60.5435Z" fill="#EAB89A"/>
<path d="M26.6426 60.5435C25.6487 53.8882 19.4477 49.2987 12.7923 50.2926C6.13694 51.2865 1.54745 57.4875 2.54139 64.1429L4.10769 74.6308C5.10163 81.2862 11.3026 85.8757 17.958 84.8817C24.6134 83.8878 29.2029 77.6868 28.2089 71.0314L26.6426 60.5435Z" fill="url(#paint1_linear_18_74)"/>
<path d="M26.6426 60.5435C25.6487 53.8882 19.4477 49.2987 12.7923 50.2926C6.13694 51.2865 1.54745 57.4875 2.54139 64.1429L4.10769 74.6308C5.10163 81.2862 11.3026 85.8757 17.958 84.8817C24.6134 83.8878 29.2029 77.6868 28.2089 71.0314L26.6426 60.5435Z" fill="url(#paint2_linear_18_74)"/>
<path d="M26.6426 60.5435C25.6487 53.8882 19.4477 49.2987 12.7923 50.2926C6.13694 51.2865 1.54745 57.4875 2.54139 64.1429L4.10769 74.6308C5.10163 81.2862 11.3026 85.8757 17.958 84.8817C24.6134 83.8878 29.2029 77.6868 28.2089 71.0314L26.6426 60.5435Z" fill="url(#paint3_radial_18_74)"/>
<path d="M26.6426 60.5435C25.6487 53.8882 19.4477 49.2987 12.7923 50.2926C6.13694 51.2865 1.54745 57.4875 2.54139 64.1429L4.10769 74.6308C5.10163 81.2862 11.3026 85.8757 17.958 84.8817C24.6134 83.8878 29.2029 77.6868 28.2089 71.0314L26.6426 60.5435Z" fill="url(#paint4_radial_18_74)"/>
<path d="M34.6981 21.2991C33.1698 14.6262 37.4773 7.85928 44.1502 6.32625C50.8184 4.78852 57.5524 8.86562 59.0902 15.5432L67.1785 51.9079C68.7068 58.5808 61.5919 58.6701 56.3015 60.1373C51.0112 61.6092 43.8728 61.8584 42.335 55.1903L34.7028 21.2991H34.6981Z" fill="url(#paint5_linear_18_74)"/>
<path d="M34.6981 21.2991C33.1698 14.6262 37.4773 7.85928 44.1502 6.32625C50.8184 4.78852 57.5524 8.86562 59.0902 15.5432L67.1785 51.9079C68.7068 58.5808 61.5919 58.6701 56.3015 60.1373C51.0112 61.6092 43.8728 61.8584 42.335 55.1903L34.7028 21.2991H34.6981Z" fill="url(#paint6_linear_18_74)"/>
<path d="M34.6981 21.2991C33.1698 14.6262 37.4773 7.85928 44.1502 6.32625C50.8184 4.78852 57.5524 8.86562 59.0902 15.5432L67.1785 51.9079C68.7068 58.5808 61.5919 58.6701 56.3015 60.1373C51.0112 61.6092 43.8728 61.8584 42.335 55.1903L34.7028 21.2991H34.6981Z" fill="url(#paint7_linear_18_74)"/>
<path d="M34.6981 21.2991C33.1698 14.6262 37.4773 7.85928 44.1502 6.32625C50.8184 4.78852 57.5524 8.86562 59.0902 15.5432L67.1785 51.9079C68.7068 58.5808 61.5919 58.6701 56.3015 60.1373C51.0112 61.6092 43.8728 61.8584 42.335 55.1903L34.7028 21.2991H34.6981Z" fill="url(#paint8_linear_18_74)"/>
<path d="M34.6981 21.2991C33.1698 14.6262 37.4773 7.85928 44.1502 6.32625C50.8184 4.78852 57.5524 8.86562 59.0902 15.5432L67.1785 51.9079C68.7068 58.5808 61.5919 58.6701 56.3015 60.1373C51.0112 61.6092 43.8728 61.8584 42.335 55.1903L34.7028 21.2991H34.6981Z" fill="url(#paint9_radial_18_74)"/>
<path d="M66.4266 22.9781C66.4762 19.6921 67.8286 16.5602 70.1866 14.271C72.5446 11.9817 75.7151 10.7226 79.0012 10.7704C85.8481 10.8691 91.5429 16.498 91.4394 23.3449L91.035 50.4597C90.9362 57.3019 85.8481 58.9196 79.0012 58.8161C72.159 58.7127 66.3232 56.9962 66.4266 50.1494V22.9781Z" fill="url(#paint10_linear_18_74)"/>
<path d="M66.4266 22.9781C66.4762 19.6921 67.8286 16.5602 70.1866 14.271C72.5446 11.9817 75.7151 10.7226 79.0012 10.7704C85.8481 10.8691 91.5429 16.498 91.4394 23.3449L91.035 50.4597C90.9362 57.3019 85.8481 58.9196 79.0012 58.8161C72.159 58.7127 66.3232 56.9962 66.4266 50.1494V22.9781Z" fill="url(#paint11_linear_18_74)"/>
<path d="M66.4266 22.9781C66.4762 19.6921 67.8286 16.5602 70.1866 14.271C72.5446 11.9817 75.7151 10.7226 79.0012 10.7704C85.8481 10.8691 91.5429 16.498 91.4394 23.3449L91.035 50.4597C90.9362 57.3019 85.8481 58.9196 79.0012 58.8161C72.159 58.7127 66.3232 56.9962 66.4266 50.1494V22.9781Z" fill="url(#paint12_radial_18_74)"/>
<path d="M34.6993 21.2991C33.171 14.6262 37.4785 7.85928 44.1514 6.32625C50.8196 4.78852 57.5536 8.86562 59.0913 15.5432L66.2721 48.4233L66.653 22.9779C66.6565 21.3369 66.9858 19.7128 67.6218 18.2C68.2579 16.6872 69.1879 15.3158 70.3581 14.1652C71.5283 13.0147 72.9153 12.108 74.4387 11.4976C75.962 10.8873 77.5914 10.5855 79.2323 10.6098C80.8731 10.6341 82.4929 10.9839 83.9975 11.6391C85.5021 12.2942 86.8616 13.2416 87.9973 14.4263C89.1329 15.6109 90.022 17.0093 90.613 18.5403C91.204 20.0712 91.4851 21.7043 91.44 23.3447L90.9134 58.482C90.8758 61.0553 91.1906 63.6216 91.8492 66.1095L94.191 74.9879C95.8228 80.0996 99.0346 93.1538 96.2037 102.785C93.3352 115.246 83.173 125.216 74.3557 130.2C65.5338 135.185 55.809 137.626 41.5744 135.608C23.2204 131.682 12.8184 118.792 9.12693 102.112C5.98563 89.2319 4.23629 75.6181 3.48389 70.323L43.8598 60.3724L34.704 21.2944L34.6993 21.2991Z" fill="url(#paint13_radial_18_74)"/>
<g filter="url(#filter3_f_18_74)">
<path d="M22.8259 56.0369C22.6652 54.9134 21.6241 54.1329 20.5006 54.2935C19.3771 54.4542 18.5966 55.4953 18.7572 56.6188L21.7059 77.2365C21.8666 78.36 22.9076 79.1406 24.0311 78.9799C25.1547 78.8192 25.9352 77.7782 25.7745 76.6546L22.8259 56.0369Z" fill="#D99F7E"/>
</g>
<path d="M31.53 42.826L30.9393 42.9142C24.2839 43.9081 19.6944 50.1091 20.6884 56.7645L23.1271 73.094C24.121 79.7493 30.322 84.3388 36.9774 83.3449L37.568 83.2567C44.2234 82.2628 48.8129 76.0618 47.819 69.4064L45.3803 53.0769C44.3863 46.4215 38.1853 41.832 31.53 42.826Z" fill="#F7C2AA"/>
<path d="M31.53 42.826L30.9393 42.9142C24.2839 43.9081 19.6944 50.1091 20.6884 56.7645L23.1271 73.094C24.121 79.7493 30.322 84.3388 36.9774 83.3449L37.568 83.2567C44.2234 82.2628 48.8129 76.0618 47.819 69.4064L45.3803 53.0769C44.3863 46.4215 38.1853 41.832 31.53 42.826Z" fill="url(#paint14_linear_18_74)"/>
<path d="M31.53 42.826L30.9393 42.9142C24.2839 43.9081 19.6944 50.1091 20.6884 56.7645L23.1271 73.094C24.121 79.7493 30.322 84.3388 36.9774 83.3449L37.568 83.2567C44.2234 82.2628 48.8129 76.0618 47.819 69.4064L45.3803 53.0769C44.3863 46.4215 38.1853 41.832 31.53 42.826Z" fill="url(#paint15_linear_18_74)"/>
<path d="M31.53 42.826L30.9393 42.9142C24.2839 43.9081 19.6944 50.1091 20.6884 56.7645L23.1271 73.094C24.121 79.7493 30.322 84.3388 36.9774 83.3449L37.568 83.2567C44.2234 82.2628 48.8129 76.0618 47.819 69.4064L45.3803 53.0769C44.3863 46.4215 38.1853 41.832 31.53 42.826Z" fill="url(#paint16_radial_18_74)"/>
<path d="M31.53 42.826L30.9393 42.9142C24.2839 43.9081 19.6944 50.1091 20.6884 56.7645L23.1271 73.094C24.121 79.7493 30.322 84.3388 36.9774 83.3449L37.568 83.2567C44.2234 82.2628 48.8129 76.0618 47.819 69.4064L45.3803 53.0769C44.3863 46.4215 38.1853 41.832 31.53 42.826Z" fill="url(#paint17_radial_18_74)"/>
<g opacity="0.5" filter="url(#filter4_f_18_74)">
<path d="M19.9374 60.4778C19.7455 59.1673 18.5286 58.2603 17.2193 58.452C15.91 58.6437 15.0042 59.8615 15.1961 61.1721L16.9899 73.4232C17.1818 74.7338 18.3987 75.6408 19.708 75.4491C21.0173 75.2574 21.9231 74.0396 21.7312 72.729L19.9374 60.4778Z" fill="url(#paint18_linear_18_74)"/>
</g>
<g opacity="0.5" filter="url(#filter5_f_18_74)">
<path d="M42.3659 51.6341C41.9384 48.7149 39.2254 46.6949 36.3062 47.1223C33.387 47.5497 31.367 50.2627 31.7944 53.182L34.4126 71.0631C34.84 73.9824 37.553 76.0023 40.4722 75.5749C43.3914 75.1475 45.4114 72.4345 44.984 69.5153L42.3659 51.6341Z" fill="url(#paint19_linear_18_74)"/>
</g>
<g filter="url(#filter6_f_18_74)">
<path d="M50.7632 16.7339L58.8045 50.7661" stroke="#FFD9BD" stroke-width="3.53366" stroke-linecap="square"/>
</g>
<g filter="url(#filter7_f_18_74)">
<path d="M83.3601 19.8943L82.0669 57.3735" stroke="#FFD9BD" stroke-width="3.53366" stroke-linecap="square"/>
</g>
<path d="M97.0728 88.9685C97.5242 93.5864 97.4584 98.5194 96.2075 102.785C94.3547 110.807 89.4829 117.795 83.901 123.085L76.8613 112.114C77.5526 101.346 76.1089 95.8624 74.3219 93.8168C72.314 91.5079 71.1148 91.5079 66.0831 91.5079C64.0375 91.5079 62.3023 91.2963 60.9338 91.0141C60.576 90.945 60.2214 90.8603 59.8711 90.7602C59.2012 90.5923 58.5504 90.356 57.9289 90.0548L57.9336 90.0313C55.3637 88.8155 53.2835 86.762 52.0346 84.208C50.7858 81.654 50.4424 78.7512 51.0609 75.9763C51.6795 73.2014 53.2231 70.7192 55.4385 68.9374C57.6538 67.1556 60.4092 66.1799 63.2522 66.1707H72.2622C77.6231 66.1707 93.6728 70.1866 97.0728 88.9685Z" fill="#EDB6A9"/>
<path d="M97.0728 88.9685C97.5242 93.5864 97.4584 98.5194 96.2075 102.785C94.3547 110.807 89.4829 117.795 83.901 123.085L76.8613 112.114C77.5526 101.346 76.1089 95.8624 74.3219 93.8168C72.314 91.5079 71.1148 91.5079 66.0831 91.5079C64.0375 91.5079 62.3023 91.2963 60.9338 91.0141C60.576 90.945 60.2214 90.8603 59.8711 90.7602C59.2012 90.5923 58.5504 90.356 57.9289 90.0548L57.9336 90.0313C55.3637 88.8155 53.2835 86.762 52.0346 84.208C50.7858 81.654 50.4424 78.7512 51.0609 75.9763C51.6795 73.2014 53.2231 70.7192 55.4385 68.9374C57.6538 67.1556 60.4092 66.1799 63.2522 66.1707H72.2622C77.6231 66.1707 93.6728 70.1866 97.0728 88.9685Z" fill="url(#paint20_radial_18_74)"/>
<path d="M97.0728 88.9685C97.5242 93.5864 97.4584 98.5194 96.2075 102.785C94.3547 110.807 89.4829 117.795 83.901 123.085L76.8613 112.114C77.5526 101.346 76.1089 95.8624 74.3219 93.8168C72.314 91.5079 71.1148 91.5079 66.0831 91.5079C64.0375 91.5079 62.3023 91.2963 60.9338 91.0141C60.576 90.945 60.2214 90.8603 59.8711 90.7602C59.2012 90.5923 58.5504 90.356 57.9289 90.0548L57.9336 90.0313C55.3637 88.8155 53.2835 86.762 52.0346 84.208C50.7858 81.654 50.4424 78.7512 51.0609 75.9763C51.6795 73.2014 53.2231 70.7192 55.4385 68.9374C57.6538 67.1556 60.4092 66.1799 63.2522 66.1707H72.2622C77.6231 66.1707 93.6728 70.1866 97.0728 88.9685Z" fill="url(#paint21_radial_18_74)"/>
<path d="M97.0728 88.9685C97.5242 93.5864 97.4584 98.5194 96.2075 102.785C94.3547 110.807 89.4829 117.795 83.901 123.085L76.8613 112.114C77.5526 101.346 76.1089 95.8624 74.3219 93.8168C72.314 91.5079 71.1148 91.5079 66.0831 91.5079C64.0375 91.5079 62.3023 91.2963 60.9338 91.0141C60.576 90.945 60.2214 90.8603 59.8711 90.7602C59.2012 90.5923 58.5504 90.356 57.9289 90.0548L57.9336 90.0313C55.3637 88.8155 53.2835 86.762 52.0346 84.208C50.7858 81.654 50.4424 78.7512 51.0609 75.9763C51.6795 73.2014 53.2231 70.7192 55.4385 68.9374C57.6538 67.1556 60.4092 66.1799 63.2522 66.1707H72.2622C77.6231 66.1707 93.6728 70.1866 97.0728 88.9685Z" fill="url(#paint22_radial_18_74)"/>
<g filter="url(#filter8_f_18_74)">
<path d="M64.6919 75.4966H74.84C80.4501 75.4966 86.2295 77.3776 88.7124 82.4093C90.2266 85.4801 91.4399 89.5148 91.4399 94.5559" stroke="url(#paint23_linear_18_74)" stroke-width="4.71155" stroke-linecap="round"/>
</g>
<path fill-rule="evenodd" clip-rule="evenodd" d="M44.1515 6.32679C37.4786 7.85982 33.171 14.6268 34.6994 21.2997L43.8599 60.373L27.227 64.4736L28.2052 71.0336C28.6822 74.2289 27.8704 77.4829 25.9483 80.0796C24.0262 82.6763 21.1513 84.4032 17.956 84.8802C14.7607 85.3573 11.5068 84.5455 8.91003 82.6234C6.31329 80.7013 4.58645 77.8264 4.1094 74.6311L3.76611 72.3409C4.63608 78.5718 6.32899 90.6338 9.127 102.113C12.8185 118.793 23.2205 131.682 41.5745 135.613C55.809 137.626 65.5339 135.181 74.3511 130.196C83.1731 125.211 93.3305 115.242 96.2085 102.785C99.03 93.1543 95.8229 80.1001 94.1958 74.9932L91.8445 66.1054C91.188 63.6188 90.8748 61.0541 90.9134 58.4826L91.4401 23.3453C91.5029 21.6944 91.2351 20.0476 90.6524 18.5017C90.0697 16.9558 89.1838 15.5419 88.0469 14.3433C86.9099 13.1446 85.5449 12.1853 84.0319 11.5218C82.5189 10.8583 80.8886 10.5038 79.2367 10.4794C77.5847 10.455 75.9446 10.761 74.4127 11.3794C72.8807 11.9979 71.4879 12.9164 70.3159 14.0809C69.144 15.2453 68.2167 16.6323 67.5885 18.1603C66.9603 19.6883 66.6438 21.3264 66.6578 22.9785L66.2722 48.4239L59.0914 15.5391C57.5537 8.87086 50.8196 4.79377 44.1515 6.32679Z" fill="url(#paint24_radial_18_74)"/>
<path fill-rule="evenodd" clip-rule="evenodd" d="M44.1515 6.32679C37.4786 7.85982 33.171 14.6268 34.6994 21.2997L43.8599 60.373L27.227 64.4736L28.2052 71.0336C28.6822 74.2289 27.8704 77.4829 25.9483 80.0796C24.0262 82.6763 21.1513 84.4032 17.956 84.8802C14.7607 85.3573 11.5068 84.5455 8.91003 82.6234C6.31329 80.7013 4.58645 77.8264 4.1094 74.6311L3.76611 72.3409C4.63608 78.5718 6.32899 90.6338 9.127 102.113C12.8185 118.793 23.2205 131.682 41.5745 135.613C55.809 137.626 65.5339 135.181 74.3511 130.196C83.1731 125.211 93.3305 115.242 96.2085 102.785C99.03 93.1543 95.8229 80.1001 94.1958 74.9932L91.8445 66.1054C91.188 63.6188 90.8748 61.0541 90.9134 58.4826L91.4401 23.3453C91.5029 21.6944 91.2351 20.0476 90.6524 18.5017C90.0697 16.9558 89.1838 15.5419 88.0469 14.3433C86.9099 13.1446 85.5449 12.1853 84.0319 11.5218C82.5189 10.8583 80.8886 10.5038 79.2367 10.4794C77.5847 10.455 75.9446 10.761 74.4127 11.3794C72.8807 11.9979 71.4879 12.9164 70.3159 14.0809C69.144 15.2453 68.2167 16.6323 67.5885 18.1603C66.9603 19.6883 66.6438 21.3264 66.6578 22.9785L66.2722 48.4239L59.0914 15.5391C57.5537 8.87086 50.8196 4.79377 44.1515 6.32679Z" fill="url(#paint25_radial_18_74)"/>
<path fill-rule="evenodd" clip-rule="evenodd" d="M44.1515 6.32679C37.4786 7.85982 33.171 14.6268 34.6994 21.2997L43.8599 60.373L27.227 64.4736L28.2052 71.0336C28.6822 74.2289 27.8704 77.4829 25.9483 80.0796C24.0262 82.6763 21.1513 84.4032 17.956 84.8802C14.7607 85.3573 11.5068 84.5455 8.91003 82.6234C6.31329 80.7013 4.58645 77.8264 4.1094 74.6311L3.76611 72.3409C4.63608 78.5718 6.32899 90.6338 9.127 102.113C12.8185 118.793 23.2205 131.682 41.5745 135.613C55.809 137.626 65.5339 135.181 74.3511 130.196C83.1731 125.211 93.3305 115.242 96.2085 102.785C99.03 93.1543 95.8229 80.1001 94.1958 74.9932L91.8445 66.1054C91.188 63.6188 90.8748 61.0541 90.9134 58.4826L91.4401 23.3453C91.5029 21.6944 91.2351 20.0476 90.6524 18.5017C90.0697 16.9558 89.1838 15.5419 88.0469 14.3433C86.9099 13.1446 85.5449 12.1853 84.0319 11.5218C82.5189 10.8583 80.8886 10.5038 79.2367 10.4794C77.5847 10.455 75.9446 10.761 74.4127 11.3794C72.8807 11.9979 71.4879 12.9164 70.3159 14.0809C69.144 15.2453 68.2167 16.6323 67.5885 18.1603C66.9603 19.6883 66.6438 21.3264 66.6578 22.9785L66.2722 48.4239L59.0914 15.5391C57.5537 8.87086 50.8196 4.79377 44.1515 6.32679Z" fill="url(#paint26_radial_18_74)"/>
<defs>
<filter id="filter0_d_18_74" x="1.12811" y="0.7017" width="100.912" height="137.382" filterUnits="userSpaceOnUse" color-interpolation-filters="sRGB">
<feFlood flood-opacity="0" result="BackgroundImageFix"/>
<feColorMatrix in="SourceAlpha" type="matrix" values="0 0 0 0 0 0 0 0 0 0 0 0 0 0 0 0 0 0 127 0" result="hardAlpha"/>
<feOffset dx="1.17789" dy="-1.76683"/>
<feGaussianBlur stdDeviation="1.76683"/>
<feComposite in2="hardAlpha" operator="out"/>
<feColorMatrix type="matrix" values="0 0 0 0 0.737255 0 0 0 0 0.494118 0 0 0 0 0.588235 0 0 0 1 0"/>
<feBlend mode="normal" in2="BackgroundImageFix" result="effect1_dropShadow_18_74"/>
<feBlend mode="normal" in="SourceGraphic" in2="effect1_dropShadow_18_74" result="shape"/>
</filter>
<filter id="filter1_f_18_74" x="4.62536" y="52.6273" width="42.6008" height="38.9373" filterUnits="userSpaceOnUse" color-interpolation-filters="sRGB">
<feFlood flood-opacity="0" result="BackgroundImageFix"/>
<feBlend mode="normal" in="SourceGraphic" in2="BackgroundImageFix" result="shape"/>
<feGaussianBlur stdDeviation="2.35578" result="effect1_foregroundBlur_18_74"/>
</filter>
<filter id="filter2_f_18_74" x="43.7518" y="66.1615" width="53.8103" height="33.2979" filterUnits="userSpaceOnUse" color-interpolation-filters="sRGB">
<feFlood flood-opacity="0" result="BackgroundImageFix"/>
<feBlend mode="normal" in="SourceGraphic" in2="BackgroundImageFix" result="shape"/>
<feGaussianBlur stdDeviation="2.35578" result="effect1_foregroundBlur_18_74"/>
</filter>
<filter id="filter3_f_18_74" x="16.3806" y="51.9167" width="11.7706" height="29.4398" filterUnits="userSpaceOnUse" color-interpolation-filters="sRGB">
<feFlood flood-opacity="0" result="BackgroundImageFix"/>
<feBlend mode="normal" in="SourceGraphic" in2="BackgroundImageFix" result="shape"/>
<feGaussianBlur stdDeviation="1.17789" result="effect1_foregroundBlur_18_74"/>
</filter>
<filter id="filter4_f_18_74" x="13.4036" y="56.6597" width="10.1201" height="20.5818" filterUnits="userSpaceOnUse" color-interpolation-filters="sRGB">
<feFlood flood-opacity="0" result="BackgroundImageFix"/>
<feBlend mode="normal" in="SourceGraphic" in2="BackgroundImageFix" result="shape"/>
<feGaussianBlur stdDeviation="0.883416" result="effect1_foregroundBlur_18_74"/>
</filter>
<filter id="filter5_f_18_74" x="29.3815" y="44.7094" width="18.0153" height="33.2784" filterUnits="userSpaceOnUse" color-interpolation-filters="sRGB">
<feFlood flood-opacity="0" result="BackgroundImageFix"/>
<feBlend mode="normal" in="SourceGraphic" in2="BackgroundImageFix" result="shape"/>
<feGaussianBlur stdDeviation="1.17789" result="effect1_foregroundBlur_18_74"/>
</filter>
<filter id="filter6_f_18_74" x="45.1035" y="11.0745" width="19.3603" height="45.351" filterUnits="userSpaceOnUse" color-interpolation-filters="sRGB">
<feFlood flood-opacity="0" result="BackgroundImageFix"/>
<feBlend mode="normal" in="SourceGraphic" in2="BackgroundImageFix" result="shape"/>
<feGaussianBlur stdDeviation="1.76683" result="effect1_foregroundBlur_18_74"/>
</filter>
<filter id="filter7_f_18_74" x="76.7066" y="14.534" width="12.0141" height="48.1999" filterUnits="userSpaceOnUse" color-interpolation-filters="sRGB">
<feFlood flood-opacity="0" result="BackgroundImageFix"/>
<feBlend mode="normal" in="SourceGraphic" in2="BackgroundImageFix" result="shape"/>
<feGaussianBlur stdDeviation="1.76683" result="effect1_foregroundBlur_18_74"/>
</filter>
<filter id="filter8_f_18_74" x="57.6244" y="68.4293" width="40.8831" height="33.1939" filterUnits="userSpaceOnUse" color-interpolation-filters="sRGB">
<feFlood flood-opacity="0" result="BackgroundImageFix"/>
<feBlend mode="normal" in="SourceGraphic" in2="BackgroundImageFix" result="shape"/>
<feGaussianBlur stdDeviation="2.35578" result="effect1_foregroundBlur_18_74"/>
</filter>
<radialGradient id="paint0_radial_18_74" cx="0" cy="0" r="1" gradientUnits="userSpaceOnUse" gradientTransform="translate(73.6033 90.8684) rotate(139.399) scale(23.6893 21.2352)">
<stop stop-color="#EEB9B1"/>
<stop offset="1" stop-color="#EEB9B1" stop-opacity="0"/>
</radialGradient>
<linearGradient id="paint1_linear_18_74" x1="5.02916" y1="72.4915" x2="15.3741" y2="70.5091" gradientUnits="userSpaceOnUse">
<stop stop-color="#E6B194"/>
<stop offset="1" stop-color="#E6B194" stop-opacity="0"/>
</linearGradient>
<linearGradient id="paint2_linear_18_74" x1="4.32784" y1="72.5391" x2="7.5315" y2="71.9276" gradientUnits="userSpaceOnUse">
<stop stop-color="#ECB19B"/>
<stop offset="1" stop-color="#ECB19B" stop-opacity="0"/>
</linearGradient>
<radialGradient id="paint3_radial_18_74" cx="0" cy="0" r="1" gradientUnits="userSpaceOnUse" gradientTransform="translate(15.3731 85.5293) rotate(-90.0003) scale(13.4326 18.1688)">
<stop stop-color="#C6888D"/>
<stop offset="1" stop-color="#C6888D" stop-opacity="0"/>
</radialGradient>
<radialGradient id="paint4_radial_18_74" cx="0" cy="0" r="1" gradientUnits="userSpaceOnUse" gradientTransform="translate(20.883 47.4993) rotate(104.036) scale(15.7536 18.6438)">
<stop stop-color="#D29D7F"/>
<stop offset="1" stop-color="#D29D7F" stop-opacity="0"/>
</radialGradient>
<linearGradient id="paint5_linear_18_74" x1="38.5918" y1="36.4272" x2="52.5113" y2="32.9473" gradientUnits="userSpaceOnUse">
<stop stop-color="#F0A985"/>
<stop offset="1" stop-color="#F0A985" stop-opacity="0"/>
</linearGradient>
<linearGradient id="paint6_linear_18_74" x1="36.5556" y1="36.4789" x2="41.3381" y2="35.7829" gradientUnits="userSpaceOnUse">
<stop stop-color="#F5B190"/>
<stop offset="1" stop-color="#F5B190" stop-opacity="0"/>
</linearGradient>
<linearGradient id="paint7_linear_18_74" x1="66.2756" y1="41.4824" x2="60.4539" y2="43.0671" gradientUnits="userSpaceOnUse">
<stop stop-color="#DC9B7F"/>
<stop offset="1" stop-color="#DC9B7F" stop-opacity="0"/>
</linearGradient>
<linearGradient id="paint8_linear_18_74" x1="55.5633" y1="67.1911" x2="53.1414" y2="48.6773" gradientUnits="userSpaceOnUse">
<stop offset="0.307" stop-color="#EDB6A9"/>
<stop offset="1" stop-color="#EDB6A9" stop-opacity="0"/>
</linearGradient>
<radialGradient id="paint9_radial_18_74" cx="0" cy="0" r="1" gradientUnits="userSpaceOnUse" gradientTransform="translate(49.8168 6.00178) rotate(95.1685) scale(13.0502 14.6681)">
<stop stop-color="#E8BEA3"/>
<stop offset="1" stop-color="#E8BEA3" stop-opacity="0"/>
</radialGradient>
<linearGradient id="paint10_linear_18_74" x1="62.6599" y1="32.877" x2="77.3741" y2="33.6858" gradientUnits="userSpaceOnUse">
<stop stop-color="#D99676"/>
<stop offset="1" stop-color="#D99676" stop-opacity="0"/>
</linearGradient>
<linearGradient id="paint11_linear_18_74" x1="77.6704" y1="54.9036" x2="78.1313" y2="47.8733" gradientUnits="userSpaceOnUse">
<stop stop-color="#EDB6A9"/>
<stop offset="1" stop-color="#EDB6A9" stop-opacity="0"/>
</linearGradient>
<radialGradient id="paint12_radial_18_74" cx="0" cy="0" r="1" gradientUnits="userSpaceOnUse" gradientTransform="translate(87.9313 10.7656) rotate(111.633) scale(18.2549 15.8412)">
<stop stop-color="#FFD6B9"/>
<stop offset="1" stop-color="#FFD6B9" stop-opacity="0"/>
</radialGradient>
<radialGradient id="paint13_radial_18_74" cx="0" cy="0" r="1" gradientUnits="userSpaceOnUse" gradientTransform="translate(91.6209 73.3232) rotate(-167.551) scale(52.2719 41.3116)">
<stop stop-color="#FFE7C7"/>
<stop offset="1" stop-color="#FFE7C7" stop-opacity="0"/>
</radialGradient>
<linearGradient id="paint14_linear_18_74" x1="23.7236" y1="68.5878" x2="32.5526" y2="67.0885" gradientUnits="userSpaceOnUse">
<stop stop-color="#D3977C"/>
<stop offset="1" stop-color="#D3977C" stop-opacity="0"/>
</linearGradient>
<linearGradient id="paint15_linear_18_74" x1="50.5576" y1="65.4266" x2="36.3535" y2="67.0059" gradientUnits="userSpaceOnUse">
<stop stop-color="#FFDABA"/>
<stop offset="1" stop-color="#FFDABA" stop-opacity="0"/>
</linearGradient>
<radialGradient id="paint16_radial_18_74" cx="0" cy="0" r="1" gradientUnits="userSpaceOnUse" gradientTransform="translate(34.6319 84.0042) rotate(-91.0361) scale(15.6621 18.6634)">
<stop stop-color="#C6888D"/>
<stop offset="1" stop-color="#C6888D" stop-opacity="0"/>
</radialGradient>
<radialGradient id="paint17_radial_18_74" cx="0" cy="0" r="1" gradientUnits="userSpaceOnUse" gradientTransform="translate(27.358 41.0289) rotate(60.8103) scale(14.138 15.1827)">
<stop stop-color="#DAAD94"/>
<stop offset="1" stop-color="#DAAD94" stop-opacity="0"/>
</radialGradient>
<linearGradient id="paint18_linear_18_74" x1="20.2024" y1="72.1877" x2="17.7014" y2="54.3273" gradientUnits="userSpaceOnUse">
<stop stop-color="#F0C0B2"/>
<stop offset="1" stop-color="#F0C0B2" stop-opacity="0"/>
</linearGradient>
<linearGradient id="paint19_linear_18_74" x1="41.5114" y1="67.8708" x2="35.98" y2="33.1117" gradientUnits="userSpaceOnUse">
<stop stop-color="#FFE5CB"/>
<stop offset="1" stop-color="#FFE5CB" stop-opacity="0"/>
</linearGradient>
<radialGradient id="paint20_radial_18_74" cx="0" cy="0" r="1" gradientUnits="userSpaceOnUse" gradientTransform="translate(65.2649 111.221) rotate(-70.648) scale(47.7476 63.8764)">
<stop offset="0.682" stop-color="#FAC4A3" stop-opacity="0"/>
<stop offset="1" stop-color="#FAC4A3"/>
</radialGradient>
<radialGradient id="paint21_radial_18_74" cx="0" cy="0" r="1" gradientUnits="userSpaceOnUse" gradientTransform="translate(48.4974 66.1703) rotate(30.356) scale(16.6968 26.4421)">
<stop stop-color="#EBA987"/>
<stop offset="1" stop-color="#EBA987" stop-opacity="0"/>
</radialGradient>
<radialGradient id="paint22_radial_18_74" cx="0" cy="0" r="1" gradientUnits="userSpaceOnUse" gradientTransform="translate(69.6782 92.7096) rotate(96.583) scale(14.0608 28.7109)">
<stop stop-color="#C58285"/>
<stop offset="1" stop-color="#C58285" stop-opacity="0"/>
</radialGradient>
<linearGradient id="paint23_linear_18_74" x1="66.5212" y1="75.4966" x2="94.694" y2="90.8221" gradientUnits="userSpaceOnUse">
<stop stop-color="#FFDEC6"/>
<stop offset="1" stop-color="#FFDEC6" stop-opacity="0"/>
</linearGradient>
<radialGradient id="paint24_radial_18_74" cx="0" cy="0" r="1" gradientUnits="userSpaceOnUse" gradientTransform="translate(34.4047 90.5589) rotate(11.85) scale(67.2692 120.869)">
<stop offset="0.671" stop-color="#F1BCB0" stop-opacity="0"/>
<stop offset="1" stop-color="#F1BCB0"/>
</radialGradient>
<radialGradient id="paint25_radial_18_74" cx="0" cy="0" r="1" gradientUnits="userSpaceOnUse" gradientTransform="translate(27.1134 69.4939) rotate(39.598) scale(77.9036 96.8331)">
<stop offset="0.902" stop-color="#E0A494" stop-opacity="0"/>
<stop offset="1" stop-color="#E0A494"/>
</radialGradient>
<radialGradient id="paint26_radial_18_74" cx="0" cy="0" r="1" gradientUnits="userSpaceOnUse" gradientTransform="translate(73.1473 80.9842) rotate(162.562) scale(66.341 88.4334)">
<stop offset="0.911" stop-color="#E9AC9A" stop-opacity="0"/>
<stop offset="1" stop-color="#E9AC9A"/>
</radialGradient>
</defs>
</svg>
