<svg width="30" height="23" viewBox="0 0 30 23" fill="none" xmlns="http://www.w3.org/2000/svg">
<path fill-rule="evenodd" clip-rule="evenodd" d="M5.55419e-08 7.08249C5.55419e-08 5.2041 0.737498 3.40264 2.05025 2.07441C3.36301 0.746189 5.14348 0 7 0H23C24.8565 0 26.637 0.746189 27.9497 2.07441C29.2625 3.40264 30 5.2041 30 7.08249V16.2452C29.9997 17.5998 29.5475 18.9146 28.7165 19.9767C27.8856 21.0388 26.7246 21.786 25.4216 22.0972C24.1186 22.4084 22.7499 22.2654 21.5372 21.6914C20.3246 21.1174 19.3389 20.146 18.74 18.9345L18.6561 18.7661C18.4869 18.4267 18.1403 18.2121 17.761 18.2121H12.2385C11.8584 18.2121 11.5112 18.4276 11.3425 18.7681L11.26 18.9345C10.661 20.1462 9.67517 21.1177 8.4623 21.6916C7.24943 22.2656 5.88055 22.4084 4.57744 22.097C3.27432 21.7855 2.11332 21.038 1.28253 19.9755C0.451731 18.9131 -0.00018292 17.598 5.55419e-08 16.2432V7.08249ZM9 12.1414C8.44771 12.1414 8 11.6937 8 11.1414V11.1178C8 10.5656 7.55228 10.1178 7 10.1178V10.1178C6.44771 10.1178 6 9.67013 6 9.11785V9.09428C6 8.54199 6.44771 8.09428 7 8.09428V8.09428C7.55228 8.09428 8 7.64656 8 7.09428V7.07071C8 6.51842 8.44771 6.07071 9 6.07071V6.07071C9.55228 6.07071 10 6.51842 10 7.07071V7.09428C10 7.64656 10.4477 8.09428 11 8.09428V8.09428C11.5523 8.09428 12 8.54199 12 9.09428V9.11785C12 9.67013 11.5523 10.1178 11 10.1178V10.1178C10.4477 10.1178 10 10.5656 10 11.1178V11.1414C10 11.6937 9.55228 12.1414 9 12.1414V12.1414ZM20 11.1414C20 11.6937 19.5523 12.1414 19 12.1414V12.1414C18.4477 12.1414 18 11.6937 18 11.1414V11.1178C18 10.5656 18.4477 10.1178 19 10.1178V10.1178C19.5523 10.1178 20 10.5656 20 11.1178V11.1414ZM22 7.09428C22 7.64656 22.4477 8.09428 23 8.09428V8.09428C23.5523 8.09428 24 7.64656 24 7.09428V7.07071C24 6.51842 23.5523 6.07071 23 6.07071V6.07071C22.4477 6.07071 22 6.51842 22 7.07071V7.09428Z" fill="white"/>
</svg>
