<svg width="30" height="26" viewBox="0 0 30 26" fill="none" xmlns="http://www.w3.org/2000/svg">
<path d="M17.1429 0C13.7329 0 10.4627 1.35459 8.05148 3.76577C5.7584 6.05885 4.42095 9.12892 4.29543 12.3572C4.2847 12.6331 4.06186 12.8571 3.78571 12.8571H1.20711C0.761654 12.8571 0.538571 13.3957 0.853553 13.7107L5.54057 18.3977C5.55155 18.4087 5.56068 18.4214 5.56763 18.4353V18.4353C5.61169 18.5234 5.7291 18.5425 5.79886 18.4729L10.5725 13.7111C10.888 13.3963 10.6651 12.8571 10.2193 12.8571H7.64286C7.36671 12.8571 7.14156 12.633 7.1551 12.3572C7.41501 7.0615 11.7819 2.85714 17.1429 2.85714C22.6714 2.85714 27.1429 7.32857 27.1429 12.8571C27.1429 18.3857 22.6714 22.8571 17.1429 22.8571C14.5662 22.8571 12.2141 21.8715 10.4481 20.2616C10.2434 20.0751 9.92657 20.0734 9.73076 20.2692L8.40972 21.5903C8.21484 21.7852 8.21375 22.1018 8.41556 22.2895C9.52814 23.3242 10.8172 24.1534 12.2229 24.7369C13.7823 25.3842 15.4545 25.7164 17.1429 25.7143C20.5528 25.7143 23.823 24.3597 26.2342 21.9485C28.6454 19.5373 30 16.2671 30 12.8571C30 9.44722 28.6454 6.17695 26.2342 3.76577C23.823 1.35459 20.5528 5.08119e-08 17.1429 0ZM16.2143 7.14286C15.9381 7.14286 15.7143 7.36671 15.7143 7.64286V14.0009C15.7143 14.1775 15.8074 14.3409 15.9593 14.431L21.3569 17.6314C21.5939 17.772 21.9 17.6943 22.0412 17.4576L22.6289 16.4732C22.7706 16.2357 22.6926 15.9282 22.4548 15.787L18.1019 13.2025C17.9502 13.1124 17.8571 12.949 17.8571 12.7725V7.64286C17.8571 7.36671 17.6333 7.14286 17.3571 7.14286H16.2143Z" fill="white"/>
</svg>
