<svg width="22" height="26" viewBox="0 0 22 26" fill="none" xmlns="http://www.w3.org/2000/svg">
<path d="M2 26C0.895431 26 0 25.1046 0 24V9.63709C0 9.0243 0.280919 8.44534 0.762256 8.0661L9.76226 0.975192C10.4883 0.40317 11.5117 0.40317 12.2377 0.975193L21.2377 8.0661C21.7191 8.44534 22 9.0243 22 9.63709V24C22 25.1046 21.1046 26 20 26H15.75C14.6454 26 13.75 25.1046 13.75 24V17.8889C13.75 16.7843 12.8546 15.8889 11.75 15.8889H10.25C9.14543 15.8889 8.25 16.7843 8.25 17.8889V24C8.25 25.1046 7.35457 26 6.25 26H2Z" fill="white"/>
</svg>
