<svg width="30" height="28" viewBox="0 0 30 28" fill="none" xmlns="http://www.w3.org/2000/svg">
<path d="M6.81818 12.2727H17.7273V15H6.81818V19.0909L0 13.6364L6.81818 8.18182V12.2727ZM5.45455 21.8182H9.14727C10.7218 23.2068 12.6637 24.1116 14.7397 24.424C16.8158 24.7364 18.9379 24.4431 20.8514 23.5793C22.7649 22.7155 24.3885 21.318 25.5274 19.5543C26.6663 17.7906 27.272 15.7358 27.272 13.6364C27.272 11.5369 26.6663 9.48211 25.5274 7.71844C24.3885 5.95477 22.7649 4.55719 20.8514 3.69341C18.9379 2.82963 16.8158 2.53633 14.7397 2.84872C12.6637 3.16111 10.7218 4.06591 9.14727 5.45455H5.45455C6.72363 3.75979 8.37045 2.38434 10.2642 1.43747C12.1579 0.490603 14.2464 -0.00158679 16.3636 3.84312e-06C23.895 3.84312e-06 30 6.105 30 13.6364C30 21.1677 23.895 27.2727 16.3636 27.2727C14.2464 27.2743 12.1579 26.7821 10.2642 25.8353C8.37045 24.8884 6.72363 23.5129 5.45455 21.8182Z" fill="white"/>
</svg>
