<svg width="26" height="26" viewBox="0 0 26 26" fill="none" xmlns="http://www.w3.org/2000/svg">
<path d="M19.0538 16.7676H17.8497L17.423 16.3561C18.3755 15.2495 19.0716 13.9461 19.4616 12.5391C19.8515 11.1321 19.9257 9.65625 19.6787 8.21724C18.9623 3.98017 15.4264 0.596604 11.1588 0.0784006C9.65848 -0.111405 8.13462 0.0445217 6.70382 0.53425C5.27303 1.02398 3.97322 1.83453 2.90388 2.90388C1.83453 3.97322 1.02398 5.27303 0.53425 6.70382C0.0445217 8.13462 -0.111405 9.65848 0.0784006 11.1588C0.596604 15.4264 3.98017 18.9623 8.21724 19.6787C9.65625 19.9257 11.1321 19.8515 12.5391 19.4616C13.9461 19.0716 15.2495 18.3755 16.3561 17.423L16.7676 17.8497V19.0538L23.2451 25.5313C23.87 26.1562 24.8912 26.1562 25.5161 25.5313C26.141 24.9064 26.141 23.8853 25.5161 23.2604L19.0538 16.7676ZM9.90902 16.7676C6.11395 16.7676 3.05045 13.7041 3.05045 9.90902C3.05045 6.11395 6.11395 3.05045 9.90902 3.05045C13.7041 3.05045 16.7676 6.11395 16.7676 9.90902C16.7676 13.7041 13.7041 16.7676 9.90902 16.7676Z" fill="#9999A1"/>
</svg>
