<svg width="21" height="23" viewBox="0 0 21 23" fill="none" xmlns="http://www.w3.org/2000/svg">
<path d="M15.1667 13.8C16.6699 13.8001 18.115 14.3722 19.2007 15.397C20.2865 16.4217 20.9289 17.8201 20.9942 19.3005L21 19.55V20.7C21.0002 21.2803 20.7779 21.8392 20.3776 22.2646C19.9773 22.6901 19.4287 22.9507 18.8417 22.9943L18.6667 23H2.33333C1.74466 23.0002 1.17767 22.781 0.746027 22.3865C0.314382 21.9919 0.0499839 21.4511 0.00583347 20.8725L0 20.7V19.55C8.68496e-05 18.0683 0.580465 16.6438 1.6201 15.5736C2.65974 14.5033 4.07838 13.8701 5.58017 13.8057L5.83333 13.8H15.1667ZM10.5 0C12.0471 0 13.5308 0.605802 14.6248 1.68414C15.7188 2.76247 16.3333 4.225 16.3333 5.75C16.3333 7.27499 15.7188 8.73753 14.6248 9.81586C13.5308 10.8942 12.0471 11.5 10.5 11.5C8.9529 11.5 7.46917 10.8942 6.37521 9.81586C5.28125 8.73753 4.66667 7.27499 4.66667 5.75C4.66667 4.225 5.28125 2.76247 6.37521 1.68414C7.46917 0.605802 8.9529 0 10.5 0Z" fill="white"/>
</svg>
